<?xml version="1.0" standalone="no"?>
<!DOCTYPE svg PUBLIC "-//W3C//DTD SVG 20010904//EN"
 "http://www.w3.org/TR/2001/REC-SVG-20010904/DTD/svg10.dtd">
<svg version="1.0" xmlns="http://www.w3.org/2000/svg"
 width="512.000000pt" height="512.000000pt" viewBox="0 0 512.000000 512.000000"
 preserveAspectRatio="xMidYMid meet">

<g transform="translate(0.000000,512.000000) scale(0.100000,-0.100000)"
fill="#ffffff" stroke="none">
<path d="M1321 5109 c-349 -47 -686 -227 -917 -489 -178 -202 -292 -435 -346
-705 -31 -156 -31 -405 1 -555 30 -143 62 -235 125 -365 72 -147 159 -268 286
-395 213 -213 456 -345 758 -412 141 -31 423 -31 569 0 117 25 243 66 340 111
l68 32 75 -31 c125 -52 224 -74 335 -74 89 -1 104 2 132 22 40 28 60 86 45
129 -5 16 -32 61 -60 99 -27 38 -64 94 -81 125 l-32 57 45 54 c141 173 247
398 298 631 19 86 22 133 22 297 0 211 -13 298 -69 467 -54 159 -171 373 -254
462 -36 38 -78 41 -109 8 -34 -36 -28 -72 27 -146 239 -326 318 -731 219
-1122 -43 -174 -134 -357 -246 -495 -58 -73 -82 -119 -82 -156 0 -31 49 -132
105 -220 l46 -70 -58 7 c-66 8 -185 44 -267 80 -77 34 -110 32 -210 -15 -432
-198 -914 -165 -1296 89 -307 205 -507 500 -586 866 -26 122 -24 378 4 512 58
268 183 494 380 685 243 236 532 360 872 375 280 12 550 -64 797 -226 82 -54
107 -58 146 -24 24 22 22 78 -4 104 -34 34 -156 109 -252 154 -200 95 -365
133 -597 140 -85 2 -188 -1 -229 -6z"/>
<path d="M3973 4846 c-134 -34 -247 -129 -309 -261 -32 -67 -148 -439 -215
-690 -25 -91 -33 -142 -33 -210 -1 -83 2 -96 32 -157 61 -124 172 -197 507
-333 77 -31 142 -59 144 -60 6 -7 -99 -274 -166 -422 -228 -507 -525 -941
-914 -1338 l-148 -150 -153 150 c-239 235 -310 278 -463 279 -83 1 -95 -2
-165 -35 -110 -53 -418 -296 -637 -503 -162 -154 -225 -265 -225 -401 0 -128
56 -240 187 -371 176 -177 391 -285 655 -329 295 -50 654 36 988 236 516 310
916 684 1267 1184 372 531 688 1319 761 1902 6 47 4 54 -19 77 -32 32 -71 33
-101 3 -18 -18 -26 -45 -40 -137 -64 -425 -285 -1027 -541 -1470 -180 -312
-385 -581 -635 -830 -240 -241 -516 -454 -794 -614 -332 -192 -684 -259 -961
-185 l-39 11 29 21 c73 53 304 247 455 383 198 177 720 700 873 874 194 221
391 496 547 765 86 148 234 459 303 635 137 349 330 965 467 1488 l11 42 41
-47 c126 -145 217 -347 253 -556 12 -70 75 -100 125 -59 27 22 29 66 5 168
-56 247 -173 454 -354 627 -93 88 -216 182 -304 231 -140 78 -318 112 -434 82z
m210 -151 c102 -26 327 -157 327 -190 0 -64 -331 -1187 -359 -1217 -15 -17
-419 162 -498 221 -95 70 -109 162 -54 365 44 162 157 539 181 604 68 183 220
265 403 217z m-1828 -3214 c33 -15 98 -62 145 -103 92 -81 260 -254 260 -268
0 -11 -302 -297 -490 -464 -144 -128 -363 -307 -441 -362 l-41 -28 -55 29
c-136 74 -281 216 -331 324 -58 126 -24 222 132 374 131 129 471 412 579 482
80 52 157 57 242 16z"/>
<path d="M733 3899 c-85 -16 -144 -62 -184 -145 -28 -57 -31 -71 -27 -127 6
-76 33 -131 88 -181 55 -49 97 -66 166 -66 81 0 129 18 184 67 118 106 118
280 0 387 -66 60 -143 82 -227 65z m133 -180 c47 -44 40 -127 -14 -169 -38
-31 -104 -27 -143 8 -45 40 -52 106 -14 150 46 54 120 59 171 11z"/>
<path d="M1461 3899 c-122 -24 -211 -129 -211 -251 0 -111 47 -192 139 -240
43 -23 66 -28 120 -28 154 1 265 109 264 260 0 76 -17 122 -67 178 -62 68
-154 99 -245 81z m117 -166 c37 -23 56 -79 43 -124 -16 -52 -53 -79 -108 -79
-38 0 -50 5 -79 34 -65 65 -38 160 56 189 21 7 60 -2 88 -20z"/>
<path d="M2195 3900 c-85 -13 -166 -77 -201 -158 -26 -60 -22 -157 9 -218 47
-93 130 -143 238 -144 151 0 259 108 259 260 0 167 -140 286 -305 260z m103
-163 c69 -34 67 -163 -3 -195 -96 -44 -191 33 -164 132 20 72 93 100 167 63z"/>
</g>
</svg>
