<svg width="254" height="458" xmlns="http://www.w3.org/2000/svg" xmlns:xlink="http://www.w3.org/1999/xlink" overflow="hidden"><defs><clipPath id="clip0"><rect x="356" y="70" width="254" height="458"/></clipPath></defs><g clip-path="url(#clip0)" transform="translate(-356 -70)"><text fill="#DAE3F3" font-family="Cambria Math,Cambria Math_MSFontService,sans-serif" font-weight="400" font-size="13" transform="translate(445.217 89)">𝐴</text><text fill="#DAE3F3" font-family="Cambria Math,Cambria Math_MSFontService,sans-serif" font-weight="400" font-size="9" transform="translate(453.717 92)">𝑥</text><text fill="#DAE3F3" font-family="Cambria Math,Cambria Math_MSFontService,sans-serif" font-weight="400" font-size="13" transform="translate(463.437 89)">=</text><text fill="#DAE3F3" font-family="Cambria Math,Cambria Math_MSFontService,sans-serif" font-weight="400" font-size="13" transform="translate(477.144 89)">𝑎𝑐𝑜𝑠</text><text fill="#DAE3F3" font-family="Cambria Math,Cambria Math_MSFontService,sans-serif" font-weight="400" font-size="13" transform="translate(504.417 89)">𝜃</text><text fill="#DAE3F3" font-family="Cambria Math,Cambria Math_MSFontService,sans-serif" font-weight="400" font-size="9" transform="translate(511.451 92)">2</text><text fill="#DAE3F3" font-family="Cambria Math,Cambria Math_MSFontService,sans-serif" font-weight="400" font-size="13" transform="translate(444.637 115)">𝐴</text><text fill="#DAE3F3" font-family="Cambria Math,Cambria Math_MSFontService,sans-serif" font-weight="400" font-size="9" transform="translate(453.137 118)">𝑦</text><text fill="#DAE3F3" font-family="Cambria Math,Cambria Math_MSFontService,sans-serif" font-weight="400" font-size="13" transform="translate(463.064 115)">=</text><text fill="#DAE3F3" font-family="Cambria Math,Cambria Math_MSFontService,sans-serif" font-weight="400" font-size="13" transform="translate(476.771 115)">𝑎𝑠𝑒𝑛</text><text fill="#DAE3F3" font-family="Cambria Math,Cambria Math_MSFontService,sans-serif" font-weight="400" font-size="13" transform="translate(504.997 115)">𝜃</text><text fill="#DAE3F3" font-family="Cambria Math,Cambria Math_MSFontService,sans-serif" font-weight="400" font-size="9" transform="translate(512.031 118)">2</text><text fill="#DAE3F3" font-family="Cambria Math,Cambria Math_MSFontService,sans-serif" font-weight="400" font-size="13" transform="translate(418.127 160)">𝑆</text><text fill="#DAE3F3" font-family="Cambria Math,Cambria Math_MSFontService,sans-serif" font-weight="400" font-size="13" transform="translate(429.094 160)">=</text><text fill="#DAE3F3" font-family="Cambria Math,Cambria Math_MSFontService,sans-serif" font-weight="400" font-size="13" transform="translate(442.801 150)">𝑎</text><text fill="#DAE3F3" font-family="Cambria Math,Cambria Math_MSFontService,sans-serif" font-weight="400" font-size="9" transform="translate(450.627 145)">2</text><text fill="#DAE3F3" font-family="Cambria Math,Cambria Math_MSFontService,sans-serif" font-weight="400" font-size="13" transform="translate(459.474 150)">−</text><text fill="#DAE3F3" font-family="Cambria Math,Cambria Math_MSFontService,sans-serif" font-weight="400" font-size="13" transform="translate(472.434 150)">𝑏</text><text fill="#DAE3F3" font-family="Cambria Math,Cambria Math_MSFontService,sans-serif" font-weight="400" font-size="9" transform="translate(480.027 145)">2</text><text fill="#DAE3F3" font-family="Cambria Math,Cambria Math_MSFontService,sans-serif" font-weight="400" font-size="13" transform="translate(488.874 150)">+</text><text fill="#DAE3F3" font-family="Cambria Math,Cambria Math_MSFontService,sans-serif" font-weight="400" font-size="13" transform="translate(501.834 150)">𝑐</text><text fill="#DAE3F3" font-family="Cambria Math,Cambria Math_MSFontService,sans-serif" font-weight="400" font-size="9" transform="translate(508.647 145)">2</text><text fill="#DAE3F3" font-family="Cambria Math,Cambria Math_MSFontService,sans-serif" font-weight="400" font-size="13" transform="translate(517.494 150)">−</text><text fill="#DAE3F3" font-family="Cambria Math,Cambria Math_MSFontService,sans-serif" font-weight="400" font-size="13" transform="translate(530.454 150)">𝑑</text><text fill="#DAE3F3" font-family="Cambria Math,Cambria Math_MSFontService,sans-serif" font-weight="400" font-size="9" transform="translate(538.541 145)">2</text><text fill="#DAE3F3" font-family="Cambria Math,Cambria Math_MSFontService,sans-serif" font-weight="400" font-size="13" transform="translate(465.187 169)">2</text><text fill="#DAE3F3" font-family="Cambria Math,Cambria Math_MSFontService,sans-serif" font-weight="400" font-size="13" transform="translate(472.521 169)">(</text><text fill="#DAE3F3" font-family="Cambria Math,Cambria Math_MSFontService,sans-serif" font-weight="400" font-size="13" transform="translate(478.021 169)">𝐴</text><text fill="#DAE3F3" font-family="Cambria Math,Cambria Math_MSFontService,sans-serif" font-weight="400" font-size="9" transform="translate(486.521 172)">𝑥</text><text fill="#DAE3F3" font-family="Cambria Math,Cambria Math_MSFontService,sans-serif" font-weight="400" font-size="13" transform="translate(495.494 169)">−</text><text fill="#DAE3F3" font-family="Cambria Math,Cambria Math_MSFontService,sans-serif" font-weight="400" font-size="13" transform="translate(508.454 169)">𝑑</text><text fill="#DAE3F3" font-family="Cambria Math,Cambria Math_MSFontService,sans-serif" font-weight="400" font-size="13" transform="translate(516.541 169)">)</text><path d="M443.114 156.209 494.114 156.209 545.114 156.209 545.114 157.209 494.114 157.209 443.114 157.209Z" fill="#DAE3F3" fill-rule="evenodd"/><text fill="#DAE3F3" font-family="Cambria Math,Cambria Math_MSFontService,sans-serif" font-weight="400" font-size="13" transform="translate(428.877 216)">𝑃</text><text fill="#DAE3F3" font-family="Cambria Math,Cambria Math_MSFontService,sans-serif" font-weight="400" font-size="13" transform="translate(441.244 216)">=</text><text fill="#DAE3F3" font-family="Cambria Math,Cambria Math_MSFontService,sans-serif" font-weight="400" font-size="13" transform="translate(475.324 205)">𝐴</text><text fill="#DAE3F3" font-family="Cambria Math,Cambria Math_MSFontService,sans-serif" font-weight="400" font-size="9" transform="translate(483.824 208)">𝑦</text><text fill="#DAE3F3" font-family="Cambria Math,Cambria Math_MSFontService,sans-serif" font-weight="400" font-size="9" transform="translate(483.697 200)">2</text><path d="M505.303 214.747C506.539 215.073 507.488 215.777 508.15 216.858 508.812 217.939 509.144 219.243 509.144 220.771 509.144 222.303 508.813 223.607 508.153 224.684 507.493 225.761 506.543 226.463 505.303 226.789L505.151 226.3C506.128 225.974 506.855 225.331 507.331 224.37 507.807 223.41 508.045 222.189 508.045 220.708 508.045 219.277 507.808 218.089 507.334 217.143 506.86 216.198 506.126 215.562 505.132 215.236ZM459.934 214.747 460.105 215.236C459.115 215.562 458.382 216.198 457.905 217.143 457.429 218.089 457.191 219.277 457.191 220.708 457.191 222.189 457.429 223.41 457.905 224.37 458.382 225.331 459.108 225.974 460.086 226.3L459.934 226.789C458.694 226.463 457.744 225.761 457.083 224.684 456.423 223.607 456.093 222.303 456.093 220.771 456.093 219.243 456.424 217.939 457.087 216.858 457.749 215.777 458.698 215.073 459.934 214.747Z" fill="#DAE3F3" fill-rule="evenodd"/><text fill="#DAE3F3" font-family="Cambria Math,Cambria Math_MSFontService,sans-serif" font-weight="400" font-size="13" transform="translate(460.484 224)">𝐴</text><text fill="#DAE3F3" font-family="Cambria Math,Cambria Math_MSFontService,sans-serif" font-weight="400" font-size="9" transform="translate(468.984 227)">𝑥</text><text fill="#DAE3F3" font-family="Cambria Math,Cambria Math_MSFontService,sans-serif" font-weight="400" font-size="13" transform="translate(477.957 224)">−</text><text fill="#DAE3F3" font-family="Cambria Math,Cambria Math_MSFontService,sans-serif" font-weight="400" font-size="13" transform="translate(490.917 224)">𝑑</text><text fill="#DAE3F3" font-family="Cambria Math,Cambria Math_MSFontService,sans-serif" font-weight="400" font-size="9" transform="translate(499.004 220)">2</text><path d="M455.111 211.573 510.111 211.573 510.111 212.573 455.111 212.573Z" fill="#DAE3F3" fill-rule="evenodd"/><text fill="#DAE3F3" font-family="Cambria Math,Cambria Math_MSFontService,sans-serif" font-weight="400" font-size="13" transform="translate(513.384 216)">+</text><text fill="#DAE3F3" font-family="Cambria Math,Cambria Math_MSFontService,sans-serif" font-weight="400" font-size="13" transform="translate(526.344 216)">1</text><text fill="#DAE3F3" font-family="Cambria Math,Cambria Math_MSFontService,sans-serif" font-weight="400" font-size="13" transform="translate(435.714 268)">𝑄</text><text fill="#DAE3F3" font-family="Cambria Math,Cambria Math_MSFontService,sans-serif" font-weight="400" font-size="13" transform="translate(448.814 268)">=</text><text fill="#DAE3F3" font-family="Cambria Math,Cambria Math_MSFontService,sans-serif" font-weight="400" font-size="13" transform="translate(462.521 257)">2</text><text fill="#DAE3F3" font-family="Cambria Math,Cambria Math_MSFontService,sans-serif" font-weight="400" font-size="13" transform="translate(469.854 257)">𝐴</text><text fill="#DAE3F3" font-family="Cambria Math,Cambria Math_MSFontService,sans-serif" font-weight="400" font-size="9" transform="translate(478.354 260)">𝑦</text><text fill="#DAE3F3" font-family="Cambria Math,Cambria Math_MSFontService,sans-serif" font-weight="400" font-size="13" transform="translate(484.574 257)">(</text><text fill="#DAE3F3" font-family="Cambria Math,Cambria Math_MSFontService,sans-serif" font-weight="400" font-size="13" transform="translate(490.074 257)">𝑑</text><text fill="#DAE3F3" font-family="Cambria Math,Cambria Math_MSFontService,sans-serif" font-weight="400" font-size="13" transform="translate(501.121 257)">−</text><text fill="#DAE3F3" font-family="Cambria Math,Cambria Math_MSFontService,sans-serif" font-weight="400" font-size="13" transform="translate(514.081 257)">𝑆</text><text fill="#DAE3F3" font-family="Cambria Math,Cambria Math_MSFontService,sans-serif" font-weight="400" font-size="13" transform="translate(521.341 257)">)</text><text fill="#DAE3F3" font-family="Cambria Math,Cambria Math_MSFontService,sans-serif" font-weight="400" font-size="13" transform="translate(475.421 277)">𝐴</text><text fill="#DAE3F3" font-family="Cambria Math,Cambria Math_MSFontService,sans-serif" font-weight="400" font-size="9" transform="translate(483.921 279)">𝑥</text><text fill="#DAE3F3" font-family="Cambria Math,Cambria Math_MSFontService,sans-serif" font-weight="400" font-size="13" transform="translate(492.894 277)">−</text><text fill="#DAE3F3" font-family="Cambria Math,Cambria Math_MSFontService,sans-serif" font-weight="400" font-size="13" transform="translate(505.854 277)">𝑑</text><path d="M462.114 263.796 494.114 263.796 526.114 263.796 526.114 264.796 494.114 264.796 462.114 264.796Z" fill="#DAE3F3" fill-rule="evenodd"/><text fill="#DAE3F3" font-family="Cambria Math,Cambria Math_MSFontService,sans-serif" font-weight="400" font-size="13" transform="translate(432.697 303)">𝑅</text><text fill="#DAE3F3" font-family="Cambria Math,Cambria Math_MSFontService,sans-serif" font-weight="400" font-size="13" transform="translate(445.297 303)">=</text><text fill="#DAE3F3" font-family="Cambria Math,Cambria Math_MSFontService,sans-serif" font-weight="400" font-size="13" transform="translate(459.004 303)">(</text><text fill="#DAE3F3" font-family="Cambria Math,Cambria Math_MSFontService,sans-serif" font-weight="400" font-size="13" transform="translate(464.504 303)">𝑑</text><text fill="#DAE3F3" font-family="Cambria Math,Cambria Math_MSFontService,sans-serif" font-weight="400" font-size="13" transform="translate(475.551 303)">−</text><text fill="#DAE3F3" font-family="Cambria Math,Cambria Math_MSFontService,sans-serif" font-weight="400" font-size="13" transform="translate(488.511 303)">𝑆</text><text fill="#DAE3F3" font-family="Cambria Math,Cambria Math_MSFontService,sans-serif" font-weight="400" font-size="13" transform="translate(495.771 303)">)</text><text fill="#DAE3F3" font-family="Cambria Math,Cambria Math_MSFontService,sans-serif" font-weight="400" font-size="9" transform="translate(501.271 298)">2</text><text fill="#DAE3F3" font-family="Cambria Math,Cambria Math_MSFontService,sans-serif" font-weight="400" font-size="13" transform="translate(507.157 303)">−</text><text fill="#DAE3F3" font-family="Cambria Math,Cambria Math_MSFontService,sans-serif" font-weight="400" font-size="13" transform="translate(517.157 303)">𝑐</text><text fill="#DAE3F3" font-family="Cambria Math,Cambria Math_MSFontService,sans-serif" font-weight="400" font-size="9" transform="translate(523.971 298)">2</text><text fill="#DAE3F3" font-family="Cambria Math,Cambria Math_MSFontService,sans-serif" font-weight="400" font-size="13" transform="translate(415.144 349)">𝐵</text><text fill="#DAE3F3" font-family="Cambria Math,Cambria Math_MSFontService,sans-serif" font-weight="400" font-size="9" transform="translate(422.804 352)">𝑦</text><text fill="#DAE3F3" font-family="Cambria Math,Cambria Math_MSFontService,sans-serif" font-weight="400" font-size="13" transform="translate(432.731 349)">=</text><text fill="#DAE3F3" font-family="Cambria Math,Cambria Math_MSFontService,sans-serif" font-weight="400" font-size="13" transform="translate(446.437 339)">−</text><text fill="#DAE3F3" font-family="Cambria Math,Cambria Math_MSFontService,sans-serif" font-weight="400" font-size="13" transform="translate(456.437 339)">𝑄</text><text fill="#DAE3F3" font-family="Cambria Math,Cambria Math_MSFontService,sans-serif" font-weight="400" font-size="13" transform="translate(468.791 339)">±</text><path d="M490.104 326.211 491.881 326.211 491.881 327.055 490.612 327.055 486.486 342.353 485.87 342.353 483.242 336.704 482.17 337.18 481.973 336.704 484.055 335.751 486.251 340.652ZM492.111 326.168 548.111 326.168 548.111 327.168 492.111 327.168Z" fill="#DAE3F3" fill-rule="evenodd"/><text fill="#DAE3F3" font-family="Cambria Math,Cambria Math_MSFontService,sans-serif" font-weight="400" font-size="13" transform="translate(491.651 339)">𝑄</text><text fill="#DAE3F3" font-family="Cambria Math,Cambria Math_MSFontService,sans-serif" font-weight="400" font-size="9" transform="translate(501.044 335)">2</text><text fill="#DAE3F3" font-family="Cambria Math,Cambria Math_MSFontService,sans-serif" font-weight="400" font-size="13" transform="translate(509.891 339)">−</text><text fill="#DAE3F3" font-family="Cambria Math,Cambria Math_MSFontService,sans-serif" font-weight="400" font-size="13" transform="translate(522.851 339)">4𝑃𝑅</text><text fill="#DAE3F3" font-family="Cambria Math,Cambria Math_MSFontService,sans-serif" font-weight="400" font-size="13" transform="translate(488.924 358)">2𝑃</text><path d="M446.111 345.168 496.611 345.168 547.111 345.168 547.111 346.168 496.611 346.168 446.111 346.168Z" fill="#DAE3F3" fill-rule="evenodd"/><text fill="#DAE3F3" font-family="Cambria Math,Cambria Math_MSFontService,sans-serif" font-weight="400" font-size="13" transform="translate(425.684 398)">𝐵</text><text fill="#DAE3F3" font-family="Cambria Math,Cambria Math_MSFontService,sans-serif" font-weight="400" font-size="9" transform="translate(433.344 401)">𝑥</text><text fill="#DAE3F3" font-family="Cambria Math,Cambria Math_MSFontService,sans-serif" font-weight="400" font-size="13" transform="translate(443.064 398)">=</text><text fill="#DAE3F3" font-family="Cambria Math,Cambria Math_MSFontService,sans-serif" font-weight="400" font-size="13" transform="translate(456.771 398)">𝑆</text><text fill="#DAE3F3" font-family="Cambria Math,Cambria Math_MSFontService,sans-serif" font-weight="400" font-size="13" transform="translate(466.991 398)">−</text><text fill="#DAE3F3" font-family="Cambria Math,Cambria Math_MSFontService,sans-serif" font-weight="400" font-size="13" transform="translate(490.444 388)">2</text><text fill="#DAE3F3" font-family="Cambria Math,Cambria Math_MSFontService,sans-serif" font-weight="400" font-size="13" transform="translate(497.777 388)">𝐴</text><text fill="#DAE3F3" font-family="Cambria Math,Cambria Math_MSFontService,sans-serif" font-weight="400" font-size="9" transform="translate(506.277 390)">𝑦</text><text fill="#DAE3F3" font-family="Cambria Math,Cambria Math_MSFontService,sans-serif" font-weight="400" font-size="13" transform="translate(512.497 388)">𝐵</text><text fill="#DAE3F3" font-family="Cambria Math,Cambria Math_MSFontService,sans-serif" font-weight="400" font-size="9" transform="translate(520.157 390)">𝑦</text><text fill="#DAE3F3" font-family="Cambria Math,Cambria Math_MSFontService,sans-serif" font-weight="400" font-size="13" transform="translate(479.951 407)">2</text><path d="M531.75 397.589C532.986 397.915 533.935 398.619 534.597 399.7 535.259 400.781 535.59 402.086 535.59 403.613 535.59 405.145 535.26 406.45 534.6 407.527 533.94 408.604 532.99 409.305 531.75 409.631L531.598 409.142C532.575 408.816 533.302 408.173 533.778 407.212 534.254 406.252 534.492 405.031 534.492 403.55 534.492 402.119 534.255 400.931 533.781 399.986 533.307 399.04 532.573 398.404 531.579 398.078ZM492.267 397.589 492.438 398.078C491.448 398.404 490.715 399.04 490.239 399.986 489.763 400.931 489.525 402.119 489.525 403.55 489.525 405.031 489.763 406.252 490.239 407.212 490.715 408.173 491.442 408.816 492.419 409.142L492.267 409.631C491.027 409.305 490.077 408.604 489.417 407.527 488.757 406.45 488.427 405.145 488.427 403.613 488.427 402.086 488.758 400.781 489.42 399.7 490.082 398.619 491.031 397.915 492.267 397.589Z" fill="#DAE3F3" fill-rule="evenodd"/><text fill="#DAE3F3" font-family="Cambria Math,Cambria Math_MSFontService,sans-serif" font-weight="400" font-size="13" transform="translate(492.817 407)">𝐴</text><text fill="#DAE3F3" font-family="Cambria Math,Cambria Math_MSFontService,sans-serif" font-weight="400" font-size="9" transform="translate(501.317 410)">𝑥</text><text fill="#DAE3F3" font-family="Cambria Math,Cambria Math_MSFontService,sans-serif" font-weight="400" font-size="13" transform="translate(510.291 407)">−</text><text fill="#DAE3F3" font-family="Cambria Math,Cambria Math_MSFontService,sans-serif" font-weight="400" font-size="13" transform="translate(523.251 407)">𝑑</text><path d="M480.111 394.415 537.111 394.415 537.111 395.415 480.111 395.415Z" fill="#DAE3F3" fill-rule="evenodd"/><text fill="#DAE3F3" font-family="Cambria Math,Cambria Math_MSFontService,sans-serif" font-weight="400" font-size="13" transform="translate(418.121 452)">𝜃</text><text fill="#DAE3F3" font-family="Cambria Math,Cambria Math_MSFontService,sans-serif" font-weight="400" font-size="9" transform="translate(425.154 455)">3</text><text fill="#DAE3F3" font-family="Cambria Math,Cambria Math_MSFontService,sans-serif" font-weight="400" font-size="13" transform="translate(434.747 452)">=</text><text fill="#DAE3F3" font-family="Cambria Math,Cambria Math_MSFontService,sans-serif" font-weight="400" font-size="13" transform="translate(448.454 452)">𝑡𝑎𝑛</text><text fill="#DAE3F3" font-family="Cambria Math,Cambria Math_MSFontService,sans-serif" font-weight="400" font-size="9" transform="translate(469.181 448)">−</text><text fill="#DAE3F3" font-family="Cambria Math,Cambria Math_MSFontService,sans-serif" font-weight="400" font-size="9" transform="translate(476.514 448)">1</text><path d="M537.505 432.117C539.244 433.606 540.624 435.828 541.646 438.782 542.668 441.736 543.179 445.032 543.179 448.672 543.179 452.256 542.668 455.547 541.646 458.545 540.624 461.544 539.244 463.783 537.505 465.264L537.206 464.795C538.708 463.267 539.866 461.056 540.678 458.161 541.491 455.267 541.897 452.106 541.897 448.678 541.897 445.17 541.489 441.994 540.672 439.15 539.855 436.306 538.7 434.121 537.206 432.593ZM491.362 432.117 491.66 432.593C490.162 434.121 489.006 436.306 488.191 439.15 487.377 441.994 486.969 445.17 486.969 448.678 486.969 452.106 487.375 455.267 488.188 458.161 489 461.056 490.158 463.267 491.66 464.795L491.362 465.264C489.623 463.783 488.242 461.544 487.22 458.545 486.198 455.547 485.687 452.256 485.687 448.672 485.687 445.032 486.198 441.736 487.22 438.782 488.242 435.828 489.623 433.606 491.362 432.117Z" fill="#DAE3F3" fill-rule="evenodd"/><text fill="#DAE3F3" font-family="Cambria Math,Cambria Math_MSFontService,sans-serif" font-weight="400" font-size="13" transform="translate(492.267 442)">𝐵</text><text fill="#DAE3F3" font-family="Cambria Math,Cambria Math_MSFontService,sans-serif" font-weight="400" font-size="9" transform="translate(499.927 444)">𝑦</text><text fill="#DAE3F3" font-family="Cambria Math,Cambria Math_MSFontService,sans-serif" font-weight="400" font-size="13" transform="translate(509.107 442)">−</text><text fill="#DAE3F3" font-family="Cambria Math,Cambria Math_MSFontService,sans-serif" font-weight="400" font-size="13" transform="translate(522.067 442)">𝐴</text><text fill="#DAE3F3" font-family="Cambria Math,Cambria Math_MSFontService,sans-serif" font-weight="400" font-size="9" transform="translate(530.567 444)">𝑦</text><text fill="#DAE3F3" font-family="Cambria Math,Cambria Math_MSFontService,sans-serif" font-weight="400" font-size="13" transform="translate(492.474 461)">𝐵</text><text fill="#DAE3F3" font-family="Cambria Math,Cambria Math_MSFontService,sans-serif" font-weight="400" font-size="9" transform="translate(500.134 464)">𝑥</text><text fill="#DAE3F3" font-family="Cambria Math,Cambria Math_MSFontService,sans-serif" font-weight="400" font-size="13" transform="translate(509.107 461)">−</text><text fill="#DAE3F3" font-family="Cambria Math,Cambria Math_MSFontService,sans-serif" font-weight="400" font-size="13" transform="translate(522.067 461)">𝐴</text><text fill="#DAE3F3" font-family="Cambria Math,Cambria Math_MSFontService,sans-serif" font-weight="400" font-size="9" transform="translate(530.567 464)">𝑥</text><path d="M492.114 448.404 537.114 448.404 537.114 449.404 492.114 449.404Z" fill="#DAE3F3" fill-rule="evenodd"/><text fill="#DAE3F3" font-family="Cambria Math,Cambria Math_MSFontService,sans-serif" font-weight="400" font-size="13" transform="translate(421.541 508)">𝜃</text><text fill="#DAE3F3" font-family="Cambria Math,Cambria Math_MSFontService,sans-serif" font-weight="400" font-size="9" transform="translate(428.574 511)">4</text><text fill="#DAE3F3" font-family="Cambria Math,Cambria Math_MSFontService,sans-serif" font-weight="400" font-size="13" transform="translate(438.167 508)">=</text><text fill="#DAE3F3" font-family="Cambria Math,Cambria Math_MSFontService,sans-serif" font-weight="400" font-size="13" transform="translate(451.874 508)">𝑡𝑎𝑛</text><text fill="#DAE3F3" font-family="Cambria Math,Cambria Math_MSFontService,sans-serif" font-weight="400" font-size="9" transform="translate(472.601 504)">−</text><text fill="#DAE3F3" font-family="Cambria Math,Cambria Math_MSFontService,sans-serif" font-weight="400" font-size="9" transform="translate(479.934 504)">1</text><path d="M534.085 488.174C535.824 489.664 537.204 491.886 538.226 494.839 539.248 497.793 539.759 501.09 539.759 504.729 539.759 508.313 539.248 511.605 538.226 514.603 537.204 517.601 535.824 519.841 534.085 521.322L533.786 520.852C535.289 519.324 536.446 517.113 537.258 514.219 538.071 511.324 538.477 508.163 538.477 504.735 538.477 501.227 538.069 498.051 537.252 495.208 536.435 492.364 535.28 490.178 533.786 488.65ZM494.782 488.174 495.08 488.65C493.582 490.178 492.426 492.364 491.611 495.208 490.797 498.051 490.389 501.227 490.389 504.735 490.389 508.163 490.796 511.324 491.608 514.219 492.421 517.113 493.578 519.324 495.08 520.852L494.782 521.322C493.043 519.841 491.662 517.601 490.64 514.603 489.618 511.605 489.107 508.313 489.107 504.729 489.107 501.09 489.618 497.793 490.64 494.839 491.662 491.886 493.043 489.664 494.782 488.174Z" fill="#DAE3F3" fill-rule="evenodd"/><text fill="#DAE3F3" font-family="Cambria Math,Cambria Math_MSFontService,sans-serif" font-weight="400" font-size="13" transform="translate(507.587 498)">𝐵</text><text fill="#DAE3F3" font-family="Cambria Math,Cambria Math_MSFontService,sans-serif" font-weight="400" font-size="9" transform="translate(515.247 500)">𝑦</text><text fill="#DAE3F3" font-family="Cambria Math,Cambria Math_MSFontService,sans-serif" font-weight="400" font-size="13" transform="translate(495.687 517)">𝐵</text><text fill="#DAE3F3" font-family="Cambria Math,Cambria Math_MSFontService,sans-serif" font-weight="400" font-size="9" transform="translate(503.347 520)">𝑥</text><text fill="#DAE3F3" font-family="Cambria Math,Cambria Math_MSFontService,sans-serif" font-weight="400" font-size="13" transform="translate(512.321 517)">−</text><text fill="#DAE3F3" font-family="Cambria Math,Cambria Math_MSFontService,sans-serif" font-weight="400" font-size="13" transform="translate(525.281 517)">𝑑</text><path d="M496.114 504.461 534.114 504.461 534.114 505.461 496.114 505.461Z" fill="#DAE3F3" fill-rule="evenodd"/></g></svg>