<svg width="247" height="432" xmlns="http://www.w3.org/2000/svg" xmlns:xlink="http://www.w3.org/1999/xlink" overflow="hidden"><defs><clipPath id="clip0"><rect x="394" y="122" width="247" height="432"/></clipPath><clipPath id="clip1"><rect x="394" y="-74" width="247" height="510"/></clipPath><clipPath id="clip2"><rect x="394" y="-74" width="247" height="510"/></clipPath><clipPath id="clip3"><rect x="394" y="-74" width="247" height="510"/></clipPath><clipPath id="clip4"><rect x="394" y="44" width="247" height="509"/></clipPath></defs><g clip-path="url(#clip0)" transform="translate(-394 -122)"><path d="M455.979 177.662 456.353 178.16C455.61 178.765 455.029 179.45 454.609 180.214 454.189 180.978 453.98 181.768 453.98 182.584 453.98 183.145 454.086 183.576 454.298 183.876 454.511 184.177 454.81 184.327 455.195 184.327 455.557 184.327 455.864 184.18 456.118 183.887 456.372 183.594 456.56 183.165 456.682 182.598L457.283 179.837 458.513 179.837 457.957 182.357C457.893 182.645 457.861 182.913 457.861 183.162 457.861 183.553 457.946 183.845 458.114 184.037 458.283 184.23 458.521 184.327 458.828 184.327 459.233 184.327 459.592 184.179 459.905 183.884 460.217 183.588 460.46 183.157 460.634 182.591 460.807 182.025 460.894 181.365 460.894 180.613 460.894 180.169 460.833 179.714 460.71 179.247 460.588 178.781 460.418 178.394 460.198 178.087L460.696 177.662C461.184 178.126 461.552 178.636 461.798 179.192 462.045 179.749 462.168 180.347 462.168 180.987 462.168 181.705 462.026 182.366 461.743 182.972 461.46 183.577 461.058 184.051 460.538 184.393 460.018 184.734 459.424 184.905 458.755 184.905 457.944 184.905 457.39 184.505 457.092 183.704L457.063 183.704C456.892 183.973 456.713 184.189 456.525 184.352 456.337 184.516 456.101 184.649 455.818 184.752 455.535 184.854 455.198 184.905 454.807 184.905 454.431 184.905 454.086 184.821 453.771 184.653 453.456 184.484 453.201 184.221 453.005 183.862 452.81 183.503 452.712 183.062 452.712 182.54 452.712 181.651 452.998 180.779 453.569 179.925 454.141 179.07 454.944 178.316 455.979 177.662Z" fill="#DAE3F3" fill-rule="evenodd"/><text fill="#000000" fill-opacity="0" font-family="Arial,Arial_MSFontService,sans-serif" font-size="7.24365" x="452.712" y="184">𝜔</text><path d="M465.75 180.364C466.155 180.364 466.509 180.427 466.814 180.552 467.118 180.677 467.351 180.857 467.512 181.092 467.673 181.326 467.754 181.607 467.754 181.932 467.754 182.237 467.693 182.504 467.571 182.735 467.449 182.966 467.278 183.168 467.058 183.34 466.838 183.512 466.552 183.68 466.201 183.845L466.201 183.893C466.42 183.932 466.63 183.999 466.832 184.094 467.035 184.189 467.215 184.312 467.372 184.462 467.53 184.613 467.656 184.793 467.751 185.002 467.846 185.211 467.893 185.45 467.893 185.719 467.893 186.134 467.803 186.503 467.622 186.825 467.441 187.148 467.165 187.402 466.792 187.588 466.42 187.774 465.967 187.867 465.433 187.867 465.125 187.867 464.793 187.833 464.437 187.763 464.081 187.693 463.754 187.601 463.457 187.486L463.457 186.347 464.101 186.347C464.227 186.72 464.392 186.99 464.598 187.158 464.804 187.327 465.084 187.411 465.439 187.411 465.904 187.411 466.256 187.284 466.494 187.03 466.732 186.775 466.851 186.399 466.851 185.902 466.851 185.379 466.694 184.98 466.379 184.704 466.064 184.428 465.602 184.29 464.993 184.29L464.509 184.29 464.509 183.818C464.993 183.789 465.4 183.696 465.731 183.538 466.063 183.381 466.309 183.178 466.47 182.931 466.631 182.684 466.712 182.407 466.712 182.099 466.712 181.701 466.606 181.395 466.395 181.18 466.183 180.966 465.876 180.858 465.471 180.858 465.134 180.858 464.86 180.949 464.649 181.132 464.438 181.315 464.282 181.594 464.182 181.97L463.537 181.97 463.537 180.949C463.953 180.753 464.341 180.606 464.703 180.509 465.065 180.412 465.414 180.364 465.75 180.364Z" fill="#DAE3F3" fill-rule="evenodd"/><text fill="#000000" fill-opacity="0" font-family="Arial,Arial_MSFontService,sans-serif" font-size="7.50342" x="463.457" y="186.93">3</text><path d="M474.455 181.536 483.478 181.536 483.478 182.51 474.455 182.51ZM474.455 178.497 483.478 178.497 483.478 179.471 474.455 179.471Z" fill="#DAE3F3" fill-rule="evenodd"/><text fill="#000000" fill-opacity="0" font-family="Arial,Arial_MSFontService,sans-serif" font-size="4.01367" x="474.455" y="182.009">=</text><path d="M493.131 167.14C492.629 167.14 492.177 167.343 491.776 167.748 491.376 168.154 491.064 168.697 490.839 169.378 490.614 170.059 490.502 170.739 490.502 171.418 490.502 171.925 490.572 172.305 490.711 172.557 490.85 172.808 491.083 172.934 491.41 172.934 491.733 172.934 492.049 172.795 492.359 172.516 492.669 172.238 492.989 171.841 493.318 171.326 493.648 170.811 493.881 170.217 494.018 169.543L494.084 169.228C494.128 169.028 494.157 168.854 494.172 168.708 494.186 168.561 494.193 168.403 494.193 168.232 494.193 167.856 494.113 167.58 493.952 167.404 493.791 167.228 493.517 167.14 493.131 167.14ZM492.985 166.562C493.302 166.562 493.599 166.597 493.875 166.668 494.151 166.739 494.435 166.864 494.728 167.045L495.402 166.562 495.871 166.679 494.794 171.322C494.687 171.786 494.633 172.148 494.633 172.406 494.633 172.602 494.665 172.743 494.728 172.831 494.792 172.919 494.892 172.963 495.028 172.963 495.175 172.963 495.331 172.903 495.497 172.784 495.663 172.664 495.898 172.436 496.2 172.099L496.618 172.509C496.178 172.978 495.804 173.311 495.494 173.509 495.183 173.706 494.848 173.805 494.486 173.805 494.184 173.805 493.942 173.705 493.761 173.505 493.581 173.305 493.49 173.039 493.49 172.707 493.49 172.438 493.547 172.153 493.659 171.85L493.564 171.821C493.095 172.504 492.651 173.005 492.231 173.322 491.811 173.639 491.366 173.798 490.898 173.798 490.36 173.798 489.944 173.595 489.649 173.19 489.353 172.785 489.206 172.216 489.206 171.484 489.206 170.644 489.37 169.837 489.7 169.063 490.03 168.289 490.483 167.679 491.059 167.232 491.635 166.785 492.277 166.562 492.985 166.562Z" fill="#DAE3F3" fill-rule="evenodd"/><text fill="#000000" fill-opacity="0" font-family="Arial,Arial_MSFontService,sans-serif" font-size="7.24365" x="489.206" y="172.9">𝑎</text><path d="M520.799 162.471C522.225 162.847 523.32 163.659 524.084 164.907 524.848 166.154 525.231 167.659 525.231 169.422 525.231 171.19 524.85 172.695 524.088 173.937 523.326 175.18 522.23 175.989 520.799 176.365L520.624 175.801C521.752 175.425 522.59 174.683 523.139 173.575 523.689 172.466 523.963 171.058 523.963 169.349 523.963 167.698 523.69 166.328 523.143 165.236 522.596 164.145 521.749 163.411 520.602 163.035ZM502.713 162.471 502.911 163.035C501.768 163.411 500.922 164.145 500.373 165.236 499.823 166.328 499.549 167.698 499.549 169.349 499.549 171.058 499.823 172.466 500.373 173.575 500.922 174.683 501.761 175.425 502.889 175.801L502.713 176.365C501.282 175.989 500.186 175.18 499.424 173.937 498.663 172.695 498.282 171.19 498.282 169.422 498.282 167.659 498.664 166.154 499.428 164.907 500.192 163.659 501.287 162.847 502.713 162.471Z" fill="#DAE3F3" fill-rule="evenodd"/><path d="M507.012 166.562 507.386 167.06C506.644 167.665 506.063 168.35 505.643 169.114 505.223 169.878 505.013 170.668 505.013 171.484 505.013 172.045 505.119 172.476 505.331 172.776 505.544 173.077 505.843 173.227 506.229 173.227 506.59 173.227 506.898 173.08 507.152 172.787 507.405 172.494 507.593 172.065 507.716 171.498L508.316 168.737 509.547 168.737 508.99 171.257C508.926 171.545 508.895 171.813 508.895 172.062 508.895 172.453 508.979 172.745 509.147 172.937 509.316 173.13 509.554 173.227 509.862 173.227 510.267 173.227 510.626 173.079 510.938 172.784 511.251 172.488 511.494 172.057 511.667 171.491 511.84 170.925 511.927 170.265 511.927 169.513 511.927 169.069 511.866 168.614 511.744 168.147 511.622 167.681 511.451 167.294 511.231 166.987L511.729 166.562C512.217 167.026 512.585 167.536 512.831 168.092 513.078 168.649 513.201 169.247 513.201 169.887 513.201 170.605 513.06 171.266 512.777 171.872 512.493 172.477 512.092 172.951 511.572 173.293 511.052 173.634 510.457 173.805 509.788 173.805 508.978 173.805 508.424 173.405 508.126 172.604L508.096 172.604C507.925 172.873 507.746 173.089 507.558 173.252 507.37 173.416 507.134 173.549 506.851 173.652 506.568 173.754 506.231 173.805 505.841 173.805 505.465 173.805 505.119 173.721 504.804 173.553 504.489 173.384 504.234 173.121 504.039 172.762 503.843 172.403 503.746 171.962 503.746 171.44 503.746 170.551 504.031 169.679 504.603 168.825 505.174 167.97 505.977 167.216 507.012 166.562Z" fill="#DAE3F3" fill-rule="evenodd"/><text fill="#000000" fill-opacity="0" font-family="Arial,Arial_MSFontService,sans-serif" font-size="7.24365" x="503.746" y="172.9">𝜔</text><path d="M516.805 169.264C517.471 169.264 517.974 169.41 518.314 169.702 518.654 169.994 518.825 170.417 518.825 170.972 518.825 171.162 518.806 171.336 518.768 171.496 518.731 171.655 518.671 171.813 518.591 171.968 518.51 172.124 518.402 172.292 518.266 172.471 518.13 172.65 517.979 172.831 517.815 173.016 517.65 173.2 517.365 173.507 516.961 173.937 516.28 174.657 515.781 175.285 515.462 175.822L517.487 175.822C517.663 175.822 517.804 175.811 517.911 175.79 518.019 175.768 518.105 175.733 518.169 175.682 518.234 175.632 518.285 175.567 518.322 175.486 518.36 175.406 518.407 175.281 518.465 175.113L518.921 175.113 518.83 176.682 514.409 176.682 514.409 176.424C514.563 176.048 514.771 175.663 515.033 175.269 515.294 174.875 515.665 174.411 516.144 173.878 516.56 173.419 516.859 173.072 517.041 172.836 517.242 172.578 517.391 172.355 517.49 172.167 517.588 171.979 517.659 171.802 517.702 171.635 517.745 171.469 517.766 171.301 517.766 171.133 517.766 170.865 517.723 170.627 517.638 170.422 517.552 170.216 517.42 170.054 517.243 169.935 517.065 169.817 516.843 169.758 516.574 169.758 515.904 169.758 515.453 170.131 515.221 170.875L514.571 170.875 514.571 169.844C515.004 169.64 515.409 169.492 515.787 169.401 516.165 169.31 516.504 169.264 516.805 169.264Z" fill="#DAE3F3" fill-rule="evenodd"/><text fill="#000000" fill-opacity="0" font-family="Arial,Arial_MSFontService,sans-serif" font-size="7.41748" x="514.409" y="175.754">2</text><path d="M508.448 188.339C508.214 188.339 507.983 188.414 507.756 188.563 507.529 188.712 507.276 188.958 506.998 189.302 506.72 189.647 506.493 189.999 506.317 190.361 506.141 190.722 505.992 191.184 505.87 191.745L505.804 192.053C505.731 192.394 505.694 192.727 505.694 193.049 505.694 193.435 505.779 193.713 505.947 193.884 506.116 194.055 506.395 194.14 506.786 194.14 506.986 194.14 507.176 194.107 507.357 194.041 507.538 193.975 507.722 193.867 507.91 193.715 508.098 193.564 508.276 193.365 508.445 193.118 508.613 192.872 508.768 192.568 508.91 192.206 509.051 191.845 509.161 191.458 509.239 191.046 509.317 190.633 509.357 190.239 509.357 189.863 509.357 189.355 509.284 188.974 509.14 188.72 508.996 188.466 508.766 188.339 508.448 188.339ZM507.167 184.128 507.591 184.128 506.302 189.255 506.398 189.284C506.871 188.649 507.315 188.19 507.731 187.907 508.146 187.624 508.561 187.482 508.976 187.482 509.508 187.482 509.922 187.685 510.217 188.09 510.513 188.496 510.66 189.067 510.66 189.804 510.66 190.61 510.498 191.402 510.173 192.181 509.848 192.96 509.398 193.577 508.822 194.034 508.246 194.49 507.601 194.719 506.888 194.719 506.239 194.719 505.663 194.56 505.16 194.243L504.486 194.719 504.017 194.602 505.914 186.23C506.026 185.732 506.083 185.371 506.083 185.146 506.083 184.941 506.02 184.797 505.896 184.714 505.771 184.631 505.548 184.584 505.226 184.575L505.314 184.194Z" fill="#DAE3F3" fill-rule="evenodd"/><text fill="#000000" fill-opacity="0" font-family="Arial,Arial_MSFontService,sans-serif" font-size="10.5908" x="504.017" y="193.395">𝑏</text><path d="M488.017 179.788 526.017 179.788 526.017 180.788 488.017 180.788Z" fill="#DAE3F3" fill-rule="evenodd"/><g clip-path="url(#clip1)"><path d="M619.398 161.379C621.404 163.098 622.997 165.662 624.177 169.07 625.356 172.478 625.945 176.282 625.945 180.481 625.945 184.617 625.356 188.414 624.177 191.874 622.997 195.333 621.404 197.917 619.398 199.626L619.053 199.084C620.787 197.322 622.122 194.77 623.06 191.431 623.997 188.091 624.466 184.443 624.466 180.488 624.466 176.44 623.995 172.776 623.052 169.495 622.11 166.213 620.777 163.691 619.053 161.929ZM536.635 161.379 536.979 161.929C535.251 163.691 533.916 166.213 532.977 169.495 532.037 172.776 531.567 176.44 531.567 180.488 531.567 184.443 532.035 188.091 532.973 191.431 533.91 194.77 535.246 197.322 536.979 199.084L536.635 199.626C534.628 197.917 533.035 195.333 531.856 191.874 530.677 188.414 530.087 184.617 530.087 180.481 530.087 176.282 530.677 172.478 531.856 169.07 533.035 165.662 534.628 163.098 536.635 161.379Z" fill="#DAE3F3" fill-rule="evenodd"/></g><path d="M548.979 167.14C548.486 167.14 548.011 167.389 547.555 167.887 547.098 168.385 546.748 169.059 546.504 169.909 547.192 169.904 547.783 169.842 548.276 169.722 548.769 169.602 549.148 169.412 549.412 169.151 549.675 168.89 549.807 168.537 549.807 168.092 549.807 167.795 549.737 167.561 549.598 167.393 549.459 167.225 549.253 167.14 548.979 167.14ZM541.357 166.569C541.811 166.569 542.225 166.596 542.598 166.65 542.972 166.703 543.344 166.796 543.715 166.928L543.386 168.466 542.792 168.466C542.739 168.031 542.596 167.702 542.364 167.477 542.132 167.253 541.767 167.14 541.269 167.14 540.883 167.14 540.571 167.239 540.331 167.437 540.092 167.635 539.973 167.895 539.973 168.217 539.973 168.393 540.003 168.548 540.064 168.682 540.125 168.816 540.248 168.964 540.434 169.125 540.62 169.286 540.908 169.484 541.298 169.718 541.606 169.904 541.852 170.074 542.038 170.227 542.224 170.381 542.37 170.534 542.477 170.685 542.585 170.837 542.663 170.997 542.712 171.165 542.761 171.333 542.785 171.537 542.785 171.777 542.785 172.211 542.669 172.583 542.437 172.894 542.205 173.204 541.89 173.434 541.492 173.586 541.094 173.737 540.642 173.813 540.134 173.813 539.728 173.813 539.331 173.782 538.94 173.721 538.549 173.66 538.115 173.556 537.636 173.41L537.988 171.813 538.559 171.813C538.579 172.282 538.71 172.636 538.955 172.875 539.199 173.114 539.587 173.234 540.119 173.234 540.583 173.234 540.945 173.13 541.207 172.923 541.468 172.715 541.599 172.421 541.599 172.04 541.599 171.821 541.562 171.631 541.489 171.473 541.415 171.314 541.296 171.161 541.13 171.015 540.964 170.868 540.7 170.685 540.339 170.466 539.958 170.236 539.661 170.029 539.449 169.843 539.237 169.657 539.077 169.456 538.969 169.239 538.862 169.021 538.808 168.771 538.808 168.488 538.808 168.102 538.912 167.764 539.119 167.474 539.327 167.183 539.623 166.96 540.009 166.803 540.395 166.647 540.844 166.569 541.357 166.569ZM553.577 166.562C553.885 166.562 554.128 166.663 554.306 166.866 554.484 167.068 554.573 167.333 554.573 167.66 554.573 167.919 554.515 168.207 554.397 168.525L554.485 168.554C554.964 167.88 555.419 167.381 555.851 167.056 556.283 166.731 556.729 166.569 557.188 166.569 557.642 166.569 557.991 166.7 558.235 166.961 558.479 167.222 558.602 167.585 558.602 168.049 558.602 168.356 558.531 168.793 558.389 169.36L557.913 171.279C557.781 171.811 557.715 172.187 557.715 172.406 557.715 172.602 557.747 172.743 557.81 172.831 557.874 172.919 557.974 172.963 558.111 172.963 558.257 172.963 558.414 172.903 558.58 172.784 558.746 172.664 558.98 172.436 559.283 172.099L559.7 172.509C559.28 172.958 558.914 173.287 558.602 173.494 558.289 173.702 557.933 173.805 557.532 173.805 557.215 173.805 556.961 173.692 556.77 173.465 556.58 173.238 556.485 172.948 556.485 172.597 556.485 172.279 556.565 171.813 556.727 171.198L557.049 169.931C557.166 169.472 557.243 169.133 557.279 168.913 557.316 168.693 557.334 168.515 557.334 168.378 557.334 168.041 557.278 167.798 557.166 167.649 557.054 167.5 556.871 167.426 556.617 167.426 556.412 167.426 556.191 167.508 555.954 167.671 555.717 167.835 555.466 168.081 555.199 168.411 554.933 168.741 554.72 169.061 554.559 169.371 554.397 169.681 554.266 170.063 554.163 170.517L553.467 173.688 552.2 173.688 553.269 169.045C553.377 168.576 553.431 168.215 553.431 167.961 553.431 167.765 553.399 167.624 553.335 167.536 553.272 167.448 553.172 167.404 553.035 167.404 552.884 167.404 552.724 167.466 552.555 167.591 552.387 167.715 552.156 167.941 551.863 168.268L551.446 167.858C551.895 167.389 552.268 167.056 552.566 166.858 552.864 166.661 553.201 166.562 553.577 166.562ZM549.243 166.562C549.834 166.562 550.277 166.681 550.572 166.921 550.868 167.16 551.016 167.533 551.016 168.041 551.016 168.871 550.626 169.494 549.847 169.909 549.069 170.324 547.913 170.531 546.379 170.531 546.321 170.824 546.291 171.142 546.291 171.484 546.291 171.996 546.392 172.369 546.592 172.601 546.792 172.832 547.119 172.948 547.573 172.948 548.022 172.948 548.429 172.851 548.793 172.655 549.156 172.46 549.541 172.16 549.946 171.755L550.4 172.231C549.927 172.753 549.447 173.146 548.961 173.41 548.475 173.674 547.91 173.805 547.266 173.805 546.558 173.805 546.009 173.589 545.621 173.157 545.233 172.725 545.039 172.123 545.039 171.352 545.039 170.829 545.133 170.269 545.321 169.671 545.509 169.073 545.793 168.536 546.174 168.06 546.555 167.583 547.012 167.215 547.544 166.954 548.076 166.692 548.643 166.562 549.243 166.562Z" fill="#DAE3F3" fill-rule="evenodd"/><text fill="#000000" fill-opacity="0" font-family="Arial,Arial_MSFontService,sans-serif" font-size="7.25098" x="537.636" y="172.906">𝑠𝑒𝑛</text><g clip-path="url(#clip2)"><path d="M612.959 162.471C614.385 162.847 615.48 163.659 616.244 164.907 617.008 166.154 617.391 167.659 617.391 169.422 617.391 171.19 617.01 172.695 616.248 173.937 615.486 175.18 614.39 175.989 612.959 176.365L612.784 175.801C613.911 175.425 614.75 174.683 615.299 173.575 615.849 172.466 616.123 171.058 616.123 169.349 616.123 167.698 615.85 166.328 615.303 165.236 614.756 164.145 613.909 163.411 612.762 163.035ZM565.773 162.471 565.971 163.035C564.828 163.411 563.982 164.145 563.433 165.236 562.883 166.328 562.609 167.698 562.609 169.349 562.609 171.058 562.883 172.466 563.433 173.575 563.982 174.683 564.821 175.425 565.949 175.801L565.773 176.365C564.342 175.989 563.246 175.18 562.484 173.937 561.723 172.695 561.342 171.19 561.342 169.422 561.342 167.659 561.724 166.154 562.488 164.907 563.252 163.659 564.347 162.847 565.773 162.471Z" fill="#DAE3F3" fill-rule="evenodd"/></g><path d="M568.49 168.949C568.261 170.009 568.146 170.9 568.146 171.623 568.146 172.17 568.229 172.571 568.395 172.828 568.561 173.084 568.83 173.212 569.201 173.212 569.748 173.212 570.266 172.845 570.757 172.11 571.248 171.375 571.664 170.321 572.006 168.949ZM571.493 164.013C570.922 164.013 570.393 164.374 569.908 165.097 569.422 165.82 569.008 166.855 568.666 168.202L572.174 168.202C572.404 167.172 572.519 166.286 572.519 165.544 572.519 165.031 572.436 164.648 572.27 164.394 572.104 164.14 571.845 164.013 571.493 164.013ZM571.581 163.42C572.997 163.42 573.705 164.318 573.705 166.115 573.705 166.623 573.648 167.229 573.533 167.935 573.418 168.641 573.236 169.36 572.987 170.092 572.738 170.824 572.423 171.473 572.043 172.037 571.662 172.601 571.222 173.036 570.724 173.344 570.226 173.652 569.689 173.805 569.113 173.805 568.385 173.805 567.843 173.583 567.487 173.139 567.13 172.695 566.952 172.028 566.952 171.139 566.952 170.656 567.006 170.06 567.113 169.352 567.221 168.644 567.398 167.92 567.644 167.181 567.891 166.441 568.208 165.784 568.597 165.21 568.985 164.637 569.432 164.195 569.937 163.885 570.442 163.575 570.99 163.42 571.581 163.42Z" fill="#DAE3F3" fill-rule="evenodd"/><text fill="#000000" fill-opacity="0" font-family="Arial,Arial_MSFontService,sans-serif" font-size="10.3857" x="566.952" y="172.507">𝜃</text><path d="M577.33 170.526 575.23 173.862 575.23 173.937 577.33 173.937 577.33 172.599C577.33 172.263 577.335 171.886 577.346 171.469 577.357 171.052 577.369 170.738 577.384 170.526ZM577.486 169.312 578.254 169.312 578.254 173.937 578.367 173.937C578.574 173.937 578.723 173.922 578.812 173.891 578.902 173.861 578.976 173.807 579.035 173.73 579.094 173.653 579.149 173.527 579.199 173.351L579.607 173.351 579.543 174.458 578.254 174.458 578.254 175.339C578.254 175.579 578.262 175.754 578.278 175.865 578.294 175.976 578.321 176.064 578.358 176.128 578.396 176.193 578.452 176.246 578.525 176.289 578.598 176.332 578.717 176.375 578.882 176.418L578.882 176.682 576.701 176.682 576.701 176.418C576.923 176.361 577.072 176.297 577.147 176.228 577.222 176.158 577.272 176.058 577.295 175.93 577.318 175.801 577.33 175.604 577.33 175.339L577.33 174.458 574.344 174.458 574.344 174.055Z" fill="#DAE3F3" fill-rule="evenodd"/><text fill="#000000" fill-opacity="0" font-family="Arial,Arial_MSFontService,sans-serif" font-size="7.36914" x="574.344" y="175.76">4</text><path d="M584.888 168.913 593.911 168.913 593.911 169.887 584.888 169.887Z" fill="#DAE3F3" fill-rule="evenodd"/><text fill="#000000" fill-opacity="0" font-family="Arial,Arial_MSFontService,sans-serif" font-size="0.974121" x="584.888" y="169.765">−</text><path d="M600.437 168.949C600.208 170.009 600.093 170.9 600.093 171.623 600.093 172.17 600.176 172.571 600.342 172.828 600.508 173.084 600.776 173.212 601.147 173.212 601.694 173.212 602.213 172.845 602.704 172.11 603.195 171.375 603.611 170.321 603.953 168.949ZM603.44 164.013C602.869 164.013 602.34 164.374 601.854 165.097 601.368 165.82 600.955 166.855 600.613 168.202L604.121 168.202C604.351 167.172 604.465 166.286 604.465 165.544 604.465 165.031 604.382 164.648 604.216 164.394 604.05 164.14 603.792 164.013 603.44 164.013ZM603.528 163.42C604.944 163.42 605.652 164.318 605.652 166.115 605.652 166.623 605.594 167.229 605.48 167.935 605.365 168.641 605.183 169.36 604.934 170.092 604.685 170.824 604.37 171.473 603.989 172.037 603.608 172.601 603.169 173.036 602.671 173.344 602.173 173.652 601.636 173.805 601.06 173.805 600.332 173.805 599.79 173.583 599.434 173.139 599.077 172.695 598.899 172.028 598.899 171.139 598.899 170.656 598.953 170.06 599.06 169.352 599.167 168.644 599.344 167.92 599.591 167.181 599.838 166.441 600.155 165.784 600.543 165.21 600.931 164.637 601.378 164.195 601.884 163.885 602.389 163.575 602.937 163.42 603.528 163.42Z" fill="#DAE3F3" fill-rule="evenodd"/><text fill="#000000" fill-opacity="0" font-family="Arial,Arial_MSFontService,sans-serif" font-size="10.3857" x="598.899" y="172.507">𝜃</text><path d="M608.965 169.264C609.631 169.264 610.134 169.41 610.474 169.702 610.814 169.994 610.985 170.417 610.985 170.972 610.985 171.162 610.966 171.336 610.928 171.496 610.891 171.655 610.831 171.813 610.751 171.968 610.67 172.124 610.562 172.292 610.426 172.471 610.29 172.65 610.14 172.831 609.975 173.016 609.81 173.2 609.525 173.507 609.121 173.937 608.44 174.657 607.941 175.285 607.622 175.822L609.647 175.822C609.823 175.822 609.964 175.811 610.071 175.79 610.179 175.768 610.265 175.733 610.329 175.682 610.394 175.632 610.445 175.567 610.482 175.486 610.52 175.406 610.567 175.281 610.625 175.113L611.081 175.113 610.99 176.682 606.57 176.682 606.57 176.424C606.724 176.048 606.931 175.663 607.193 175.269 607.454 174.875 607.825 174.411 608.304 173.878 608.72 173.419 609.019 173.072 609.201 172.836 609.402 172.578 609.551 172.355 609.65 172.167 609.748 171.979 609.819 171.802 609.862 171.635 609.905 171.469 609.926 171.301 609.926 171.133 609.926 170.865 609.883 170.627 609.798 170.422 609.712 170.216 609.58 170.054 609.403 169.935 609.226 169.817 609.003 169.758 608.734 169.758 608.064 169.758 607.613 170.131 607.381 170.875L606.731 170.875 606.731 169.844C607.164 169.64 607.569 169.492 607.947 169.401 608.325 169.31 608.664 169.264 608.965 169.264Z" fill="#DAE3F3" fill-rule="evenodd"/><text fill="#000000" fill-opacity="0" font-family="Arial,Arial_MSFontService,sans-serif" font-size="7.41748" x="606.57" y="175.754">2</text><path d="M548.979 188.054C548.486 188.054 548.011 188.303 547.555 188.801 547.098 189.299 546.748 189.973 546.504 190.822 547.192 190.817 547.783 190.755 548.276 190.635 548.769 190.516 549.148 190.325 549.412 190.064 549.675 189.803 549.807 189.45 549.807 189.006 549.807 188.708 549.737 188.475 549.598 188.306 549.459 188.138 549.253 188.054 548.979 188.054ZM541.357 187.482C541.811 187.482 542.225 187.509 542.598 187.563 542.972 187.617 543.344 187.709 543.715 187.841L543.386 189.379 542.792 189.379C542.739 188.945 542.596 188.615 542.364 188.391 542.132 188.166 541.767 188.054 541.269 188.054 540.883 188.054 540.571 188.153 540.331 188.35 540.092 188.548 539.973 188.808 539.973 189.13 539.973 189.306 540.003 189.461 540.064 189.595 540.125 189.73 540.248 189.877 540.434 190.039 540.62 190.2 540.908 190.397 541.298 190.632 541.606 190.817 541.852 190.987 542.038 191.141 542.224 191.295 542.37 191.447 542.477 191.599 542.585 191.75 542.663 191.91 542.712 192.078 542.761 192.247 542.785 192.451 542.785 192.69 542.785 193.124 542.669 193.497 542.437 193.807 542.205 194.117 541.89 194.348 541.492 194.499 541.094 194.65 540.642 194.726 540.134 194.726 539.728 194.726 539.331 194.696 538.94 194.634 538.549 194.573 538.115 194.47 537.636 194.323L537.988 192.727 538.559 192.727C538.579 193.195 538.71 193.549 538.955 193.789 539.199 194.028 539.587 194.147 540.119 194.147 540.583 194.147 540.945 194.044 541.207 193.836 541.468 193.629 541.599 193.334 541.599 192.954 541.599 192.734 541.562 192.545 541.489 192.386 541.415 192.227 541.296 192.075 541.13 191.928 540.964 191.782 540.7 191.599 540.339 191.379 539.958 191.149 539.661 190.942 539.449 190.756 539.237 190.571 539.077 190.369 538.969 190.152 538.862 189.935 538.808 189.685 538.808 189.401 538.808 189.016 538.912 188.677 539.119 188.387 539.327 188.096 539.623 187.873 540.009 187.717 540.395 187.561 540.844 187.482 541.357 187.482ZM553.577 187.475C553.885 187.475 554.128 187.576 554.306 187.779 554.484 187.982 554.573 188.247 554.573 188.574 554.573 188.832 554.515 189.121 554.397 189.438L554.485 189.467C554.964 188.793 555.419 188.294 555.851 187.969 556.283 187.645 556.729 187.482 557.188 187.482 557.642 187.482 557.991 187.613 558.235 187.874 558.479 188.135 558.602 188.498 558.602 188.962 558.602 189.269 558.531 189.706 558.389 190.273L557.913 192.192C557.781 192.724 557.715 193.1 557.715 193.32 557.715 193.515 557.747 193.657 557.81 193.745 557.874 193.832 557.974 193.876 558.111 193.876 558.257 193.876 558.414 193.817 558.58 193.697 558.746 193.577 558.98 193.349 559.283 193.012L559.7 193.422C559.28 193.872 558.914 194.2 558.602 194.407 558.289 194.615 557.933 194.719 557.532 194.719 557.215 194.719 556.961 194.605 556.77 194.378 556.58 194.151 556.485 193.862 556.485 193.51 556.485 193.193 556.565 192.727 556.727 192.111L557.049 190.844C557.166 190.385 557.243 190.046 557.279 189.826 557.316 189.606 557.334 189.428 557.334 189.291 557.334 188.955 557.278 188.712 557.166 188.563 557.054 188.414 556.871 188.339 556.617 188.339 556.412 188.339 556.191 188.421 555.954 188.585 555.717 188.748 555.466 188.995 555.199 189.324 554.933 189.654 554.72 189.974 554.559 190.284 554.397 190.594 554.266 190.976 554.163 191.43L553.467 194.602 552.2 194.602 553.269 189.958C553.377 189.489 553.431 189.128 553.431 188.874 553.431 188.679 553.399 188.537 553.335 188.449 553.272 188.361 553.172 188.317 553.035 188.317 552.884 188.317 552.724 188.38 552.555 188.504 552.387 188.629 552.156 188.854 551.863 189.182L551.446 188.771C551.895 188.303 552.268 187.969 552.566 187.772 552.864 187.574 553.201 187.475 553.577 187.475ZM549.243 187.475C549.834 187.475 550.277 187.595 550.572 187.834 550.868 188.073 551.016 188.447 551.016 188.955 551.016 189.785 550.626 190.407 549.847 190.822 549.069 191.237 547.913 191.445 546.379 191.445 546.321 191.738 546.291 192.055 546.291 192.397 546.291 192.91 546.392 193.282 546.592 193.514 546.792 193.746 547.119 193.862 547.573 193.862 548.022 193.862 548.429 193.764 548.793 193.569 549.156 193.373 549.541 193.073 549.946 192.668L550.4 193.144C549.927 193.666 549.447 194.06 548.961 194.323 548.475 194.587 547.91 194.719 547.266 194.719 546.558 194.719 546.009 194.503 545.621 194.071 545.233 193.638 545.039 193.037 545.039 192.265 545.039 191.743 545.133 191.182 545.321 190.584 545.509 189.986 545.793 189.449 546.174 188.973 546.555 188.497 547.012 188.128 547.544 187.867 548.076 187.606 548.643 187.475 549.243 187.475Z" fill="#DAE3F3" fill-rule="evenodd"/><text fill="#000000" fill-opacity="0" font-family="Arial,Arial_MSFontService,sans-serif" font-size="7.25098" x="537.636" y="193.82">𝑠𝑒𝑛</text><g clip-path="url(#clip3)"><path d="M612.959 183.385C614.385 183.761 615.48 184.572 616.244 185.82 617.008 187.068 617.391 188.573 617.391 190.335 617.391 192.103 617.01 193.608 616.248 194.851 615.486 196.093 614.39 196.903 612.959 197.279L612.784 196.715C613.911 196.339 614.75 195.597 615.299 194.488 615.849 193.38 616.123 191.971 616.123 190.262 616.123 188.612 615.85 187.241 615.303 186.15 614.756 185.058 613.909 184.325 612.762 183.949ZM565.773 183.385 565.971 183.949C564.828 184.325 563.982 185.058 563.433 186.15 562.883 187.241 562.609 188.612 562.609 190.262 562.609 191.971 562.883 193.38 563.433 194.488 563.982 195.597 564.821 196.339 565.949 196.715L565.773 197.279C564.342 196.903 563.246 196.093 562.484 194.851 561.723 193.608 561.342 192.103 561.342 190.335 561.342 188.573 561.724 187.068 562.488 185.82 563.252 184.572 564.347 183.761 565.773 183.385Z" fill="#DAE3F3" fill-rule="evenodd"/></g><path d="M568.49 189.863C568.261 190.922 568.146 191.813 568.146 192.536 568.146 193.083 568.229 193.485 568.395 193.741 568.561 193.997 568.83 194.125 569.201 194.125 569.748 194.125 570.266 193.758 570.757 193.023 571.248 192.288 571.664 191.235 572.006 189.863ZM571.493 184.926C570.922 184.926 570.393 185.288 569.908 186.01 569.422 186.733 569.008 187.768 568.666 189.116L572.174 189.116C572.404 188.085 572.519 187.199 572.519 186.457 572.519 185.944 572.436 185.561 572.27 185.307 572.104 185.053 571.845 184.926 571.493 184.926ZM571.581 184.333C572.997 184.333 573.705 185.231 573.705 187.028 573.705 187.536 573.648 188.143 573.533 188.848 573.418 189.554 573.236 190.273 572.987 191.005 572.738 191.738 572.423 192.386 572.043 192.95 571.662 193.514 571.222 193.95 570.724 194.257 570.226 194.565 569.689 194.719 569.113 194.719 568.385 194.719 567.843 194.497 567.487 194.052 567.13 193.608 566.952 192.941 566.952 192.053 566.952 191.569 567.006 190.974 567.113 190.266 567.221 189.558 567.398 188.834 567.644 188.094 567.891 187.354 568.208 186.697 568.597 186.124 568.985 185.55 569.432 185.108 569.937 184.798 570.442 184.488 570.99 184.333 571.581 184.333Z" fill="#DAE3F3" fill-rule="evenodd"/><text fill="#000000" fill-opacity="0" font-family="Arial,Arial_MSFontService,sans-serif" font-size="10.3857" x="566.952" y="193.42">𝜃</text><path d="M576.997 190.177C577.401 190.177 577.756 190.24 578.06 190.365 578.365 190.491 578.597 190.671 578.759 190.905 578.92 191.14 579 191.42 579 191.746 579 192.05 578.939 192.318 578.818 192.549 578.696 192.78 578.525 192.981 578.305 193.153 578.085 193.325 577.799 193.493 577.448 193.658L577.448 193.706C577.667 193.746 577.877 193.813 578.079 193.908 578.281 194.003 578.461 194.125 578.619 194.276 578.776 194.426 578.903 194.606 578.998 194.815 579.093 195.025 579.14 195.264 579.14 195.532 579.14 195.948 579.05 196.317 578.869 196.639 578.688 196.961 578.411 197.215 578.039 197.402 577.667 197.588 577.214 197.681 576.68 197.681 576.372 197.681 576.04 197.646 575.684 197.576 575.327 197.506 575.001 197.414 574.703 197.299L574.703 196.161 575.348 196.161C575.473 196.533 575.639 196.804 575.845 196.972 576.051 197.14 576.331 197.224 576.685 197.224 577.151 197.224 577.503 197.097 577.741 196.843 577.979 196.589 578.098 196.213 578.098 195.715 578.098 195.192 577.94 194.793 577.625 194.517 577.31 194.242 576.848 194.104 576.24 194.104L575.756 194.104 575.756 193.631C576.24 193.602 576.647 193.509 576.978 193.352 577.309 193.194 577.555 192.992 577.717 192.745 577.878 192.498 577.958 192.22 577.958 191.912 577.958 191.515 577.853 191.209 577.641 190.994 577.43 190.779 577.122 190.672 576.718 190.672 576.381 190.672 576.107 190.763 575.896 190.945 575.685 191.128 575.529 191.407 575.429 191.783L574.784 191.783 574.784 190.763C575.199 190.566 575.588 190.419 575.95 190.322 576.311 190.226 576.66 190.177 576.997 190.177Z" fill="#DAE3F3" fill-rule="evenodd"/><text fill="#000000" fill-opacity="0" font-family="Arial,Arial_MSFontService,sans-serif" font-size="7.50342" x="574.703" y="196.743">3</text><path d="M584.888 189.826 593.911 189.826 593.911 190.8 584.888 190.8Z" fill="#DAE3F3" fill-rule="evenodd"/><text fill="#000000" fill-opacity="0" font-family="Arial,Arial_MSFontService,sans-serif" font-size="0.974121" x="584.888" y="190.678">−</text><path d="M600.437 189.863C600.208 190.922 600.093 191.813 600.093 192.536 600.093 193.083 600.176 193.485 600.342 193.741 600.508 193.997 600.776 194.125 601.147 194.125 601.694 194.125 602.213 193.758 602.704 193.023 603.195 192.288 603.611 191.235 603.953 189.863ZM603.44 184.926C602.869 184.926 602.34 185.288 601.854 186.01 601.368 186.733 600.955 187.768 600.613 189.116L604.121 189.116C604.351 188.085 604.465 187.199 604.465 186.457 604.465 185.944 604.382 185.561 604.216 185.307 604.05 185.053 603.792 184.926 603.44 184.926ZM603.528 184.333C604.944 184.333 605.652 185.231 605.652 187.028 605.652 187.536 605.594 188.143 605.48 188.848 605.365 189.554 605.183 190.273 604.934 191.005 604.685 191.738 604.37 192.386 603.989 192.95 603.608 193.514 603.169 193.95 602.671 194.257 602.173 194.565 601.636 194.719 601.06 194.719 600.332 194.719 599.79 194.497 599.434 194.052 599.077 193.608 598.899 192.941 598.899 192.053 598.899 191.569 598.953 190.974 599.06 190.266 599.167 189.558 599.344 188.834 599.591 188.094 599.838 187.354 600.155 186.697 600.543 186.124 600.931 185.55 601.378 185.108 601.884 184.798 602.389 184.488 602.937 184.333 603.528 184.333Z" fill="#DAE3F3" fill-rule="evenodd"/><text fill="#000000" fill-opacity="0" font-family="Arial,Arial_MSFontService,sans-serif" font-size="10.3857" x="598.899" y="193.42">𝜃</text><path d="M609.277 191.44 607.176 194.775 607.176 194.85 609.277 194.85 609.277 193.513C609.277 193.176 609.282 192.799 609.293 192.382 609.303 191.965 609.316 191.651 609.33 191.44ZM609.432 190.226 610.2 190.226 610.2 194.85 610.313 194.85C610.521 194.85 610.669 194.835 610.759 194.805 610.849 194.774 610.923 194.72 610.982 194.643 611.041 194.566 611.096 194.44 611.146 194.265L611.554 194.265 611.489 195.371 610.2 195.371 610.2 196.252C610.2 196.492 610.208 196.667 610.225 196.778 610.241 196.889 610.268 196.977 610.305 197.042 610.343 197.106 610.398 197.16 610.472 197.203 610.545 197.246 610.664 197.289 610.829 197.332L610.829 197.595 608.648 197.595 608.648 197.332C608.87 197.274 609.019 197.211 609.094 197.141 609.169 197.071 609.218 196.972 609.242 196.843 609.265 196.714 609.277 196.517 609.277 196.252L609.277 195.371 606.29 195.371 606.29 194.968Z" fill="#DAE3F3" fill-rule="evenodd"/><text fill="#000000" fill-opacity="0" font-family="Arial,Arial_MSFontService,sans-serif" font-size="7.36914" x="606.29" y="196.674">4</text><path d="M537.017 179.788 577.517 179.788 618.017 179.788 618.017 180.788 577.517 180.788 537.017 180.788Z" fill="#DAE3F3" fill-rule="evenodd"/><path d="M456.689 295.022 457.063 295.52C456.32 296.125 455.739 296.81 455.319 297.574 454.9 298.339 454.69 299.128 454.69 299.944 454.69 300.505 454.796 300.936 455.008 301.237 455.221 301.537 455.52 301.687 455.905 301.687 456.267 301.687 456.574 301.54 456.828 301.248 457.082 300.955 457.27 300.525 457.392 299.958L457.993 297.197 459.223 297.197 458.667 299.717C458.603 300.005 458.571 300.273 458.571 300.522 458.571 300.913 458.656 301.205 458.824 301.398 458.993 301.591 459.231 301.687 459.538 301.687 459.943 301.687 460.302 301.539 460.615 301.244 460.927 300.948 461.17 300.518 461.344 299.951 461.517 299.385 461.604 298.726 461.604 297.974 461.604 297.529 461.543 297.074 461.421 296.608 461.298 296.141 461.128 295.754 460.908 295.447L461.406 295.022C461.894 295.486 462.262 295.996 462.508 296.553 462.755 297.109 462.878 297.707 462.878 298.347 462.878 299.065 462.736 299.727 462.453 300.332 462.17 300.937 461.768 301.411 461.248 301.753 460.728 302.095 460.134 302.266 459.465 302.266 458.654 302.266 458.1 301.865 457.802 301.064L457.773 301.064C457.602 301.333 457.423 301.549 457.235 301.713 457.047 301.876 456.811 302.009 456.528 302.112 456.245 302.214 455.908 302.266 455.517 302.266 455.141 302.266 454.796 302.181 454.481 302.013 454.166 301.844 453.911 301.581 453.715 301.222 453.52 300.863 453.422 300.422 453.422 299.9 453.422 299.011 453.708 298.14 454.279 297.285 454.851 296.431 455.654 295.676 456.689 295.022Z" fill="#DAE3F3" fill-rule="evenodd"/><text fill="#000000" fill-opacity="0" font-family="Arial,Arial_MSFontService,sans-serif" font-size="7.24365" x="453.422" y="301.36">𝜔</text><path d="M466.793 298.986 464.693 302.322 464.693 302.397 466.793 302.397 466.793 301.06C466.793 300.723 466.799 300.346 466.809 299.929 466.82 299.512 466.833 299.198 466.847 298.986ZM466.949 297.773 467.717 297.773 467.717 302.397 467.83 302.397C468.038 302.397 468.186 302.382 468.276 302.351 468.365 302.321 468.439 302.267 468.499 302.19 468.558 302.113 468.612 301.987 468.662 301.812L469.071 301.812 469.006 302.918 467.717 302.918 467.717 303.799C467.717 304.039 467.725 304.214 467.741 304.325 467.757 304.436 467.784 304.524 467.822 304.589 467.859 304.653 467.915 304.707 467.988 304.75 468.062 304.793 468.181 304.836 468.345 304.879L468.345 305.142 466.165 305.142 466.165 304.879C466.387 304.821 466.535 304.758 466.611 304.688 466.686 304.618 466.735 304.519 466.758 304.39 466.782 304.261 466.793 304.064 466.793 303.799L466.793 302.918 463.807 302.918 463.807 302.515Z" fill="#DAE3F3" fill-rule="evenodd"/><text fill="#000000" fill-opacity="0" font-family="Arial,Arial_MSFontService,sans-serif" font-size="7.36914" x="463.807" y="304.221">4</text><path d="M475.165 298.896 484.188 298.896 484.188 299.871 475.165 299.871ZM475.165 295.857 484.188 295.857 484.188 296.831 475.165 296.831Z" fill="#DAE3F3" fill-rule="evenodd"/><text fill="#000000" fill-opacity="0" font-family="Arial,Arial_MSFontService,sans-serif" font-size="4.01367" x="475.165" y="299.369">=</text><path d="M493.966 287.709C492.975 287.718 492.233 287.85 491.739 288.104 491.246 288.358 491 288.741 491 289.254 491 289.532 491.056 289.752 491.168 289.913 491.28 290.074 491.422 290.185 491.593 290.246 491.764 290.307 491.966 290.338 492.201 290.338 492.533 290.338 492.834 290.257 493.105 290.096 493.376 289.935 493.588 289.73 493.739 289.481 493.89 289.232 493.966 288.985 493.966 288.741ZM493.175 283.922C493.658 283.922 494.047 283.999 494.34 284.153 494.633 284.306 494.852 284.542 494.999 284.859 495.145 285.177 495.218 285.655 495.218 286.295L495.218 288.844C495.218 289.205 495.221 289.46 495.226 289.609 495.231 289.758 495.245 289.896 495.27 290.023 495.294 290.15 495.331 290.251 495.38 290.327 495.428 290.403 495.5 290.467 495.596 290.521 495.691 290.575 495.846 290.631 496.061 290.69L496.061 291.048 494.054 291.048 494.091 290.001 493.981 289.972C493.556 290.406 493.157 290.714 492.783 290.895 492.41 291.075 492.013 291.166 491.593 291.166 491.222 291.166 490.895 291.094 490.612 290.95 490.328 290.805 490.111 290.603 489.96 290.342 489.808 290.08 489.733 289.779 489.733 289.437 489.733 288.724 490.085 288.174 490.791 287.785 491.497 287.397 492.555 287.171 493.966 287.108L493.966 286.632C493.966 286.124 493.917 285.724 493.82 285.431 493.722 285.138 493.568 284.923 493.358 284.786 493.148 284.649 492.867 284.581 492.516 284.581 492.135 284.581 491.829 284.681 491.597 284.881 491.365 285.082 491.19 285.382 491.073 285.782L490.113 285.782 490.113 284.83C490.582 284.586 490.973 284.407 491.285 284.292 491.598 284.177 491.91 284.087 492.223 284.021 492.535 283.955 492.853 283.922 493.175 283.922Z" fill="#DAE3F3" fill-rule="evenodd"/><text fill="#000000" fill-opacity="0" font-family="Arial,Arial_MSFontService,sans-serif" font-size="7.24365" x="489.733" y="290.26">a</text><path d="M520.816 279.832C522.242 280.208 523.337 281.019 524.101 282.267 524.865 283.514 525.247 285.02 525.247 286.782 525.247 288.55 524.866 290.055 524.105 291.298 523.343 292.54 522.247 293.35 520.816 293.726L520.64 293.162C521.768 292.786 522.607 292.043 523.156 290.935 523.705 289.827 523.98 288.418 523.98 286.709 523.98 285.059 523.707 283.688 523.16 282.596 522.613 281.505 521.766 280.772 520.618 280.396ZM502.063 279.832 502.261 280.396C501.118 280.772 500.272 281.505 499.723 282.596 499.173 283.688 498.899 285.059 498.899 286.709 498.899 288.418 499.173 289.827 499.723 290.935 500.272 292.043 501.111 292.786 502.239 293.162L502.063 293.726C500.632 293.35 499.536 292.54 498.774 291.298 498.013 290.055 497.632 288.55 497.632 286.782 497.632 285.02 498.014 283.514 498.778 282.267 499.542 281.019 500.637 280.208 502.063 279.832Z" fill="#DAE3F3" fill-rule="evenodd"/><path d="M502.612 284.046 505.505 284.046 505.505 284.405C505.222 284.464 505.031 284.541 504.931 284.636 504.83 284.731 504.78 284.874 504.78 285.065 504.78 285.196 504.795 285.334 504.824 285.478 504.854 285.622 504.898 285.79 504.956 285.98L506.106 289.715 507.988 284.046 509.021 284.046 510.618 289.715 511.907 286.134C511.975 285.948 512.031 285.771 512.075 285.603 512.119 285.434 512.141 285.277 512.141 285.13 512.141 284.925 512.086 284.767 511.976 284.654 511.867 284.542 511.68 284.459 511.416 284.405L511.416 284.046 513.972 284.046 513.972 284.405C513.836 284.44 513.733 284.475 513.665 284.512 513.596 284.548 513.529 284.602 513.463 284.673 513.397 284.743 513.324 284.853 513.244 285.002 513.163 285.151 513.062 285.382 512.94 285.694L510.823 291.085 509.834 291.085 508.245 285.577 506.326 291.085 505.308 291.085 503.55 285.65C503.438 285.299 503.344 285.051 503.268 284.907 503.192 284.763 503.112 284.656 503.026 284.585 502.941 284.514 502.803 284.454 502.612 284.405Z" fill="#DAE3F3" fill-rule="evenodd"/><text fill="#000000" fill-opacity="0" font-family="Arial,Arial_MSFontService,sans-serif" font-size="7.03857" x="502.612" y="290.205">w</text><path d="M516.822 286.624C517.488 286.624 517.991 286.77 518.331 287.062 518.671 287.354 518.841 287.777 518.841 288.332 518.841 288.522 518.822 288.697 518.785 288.856 518.747 289.015 518.688 289.173 518.608 289.329 518.527 289.484 518.419 289.652 518.283 289.831 518.147 290.01 517.996 290.192 517.831 290.376 517.667 290.56 517.382 290.867 516.977 291.297 516.297 292.017 515.798 292.645 515.479 293.182L517.504 293.182C517.679 293.182 517.821 293.172 517.928 293.15 518.036 293.129 518.122 293.093 518.186 293.043 518.25 292.993 518.301 292.927 518.339 292.847 518.377 292.766 518.424 292.642 518.481 292.473L518.938 292.473 518.847 294.042 514.426 294.042 514.426 293.784C514.58 293.408 514.788 293.023 515.049 292.629 515.311 292.235 515.681 291.772 516.161 291.238 516.576 290.78 516.875 290.432 517.058 290.196 517.259 289.938 517.408 289.715 517.507 289.527 517.605 289.339 517.676 289.162 517.719 288.996 517.762 288.829 517.783 288.662 517.783 288.493 517.783 288.225 517.74 287.988 517.654 287.782 517.568 287.576 517.437 287.414 517.259 287.296 517.082 287.177 516.859 287.118 516.591 287.118 515.921 287.118 515.47 287.491 515.237 288.236L514.587 288.236 514.587 287.204C515.021 287 515.426 286.853 515.804 286.761 516.182 286.67 516.521 286.624 516.822 286.624Z" fill="#DAE3F3" fill-rule="evenodd"/><text fill="#000000" fill-opacity="0" font-family="Arial,Arial_MSFontService,sans-serif" font-size="7.41748" x="514.426" y="293.115">2</text><path d="M508.569 304.835C508.969 304.835 509.339 304.858 509.679 304.905 510.018 304.951 510.359 305.026 510.7 305.128L510.7 306.659 509.77 306.659C509.687 306.342 509.585 306.091 509.463 305.908 509.34 305.725 509.199 305.597 509.038 305.524 508.877 305.451 508.676 305.414 508.437 305.414 508.095 305.414 507.793 305.524 507.529 305.743 507.265 305.963 507.057 306.298 506.903 306.747 506.749 307.196 506.672 307.745 506.672 308.395 506.672 308.81 506.701 309.19 506.76 309.534 506.818 309.878 506.919 310.172 507.06 310.416 507.202 310.66 507.39 310.851 507.624 310.988 507.859 311.124 508.149 311.193 508.496 311.193 508.833 311.193 509.146 311.127 509.437 310.995 509.727 310.863 510.029 310.631 510.341 310.299L510.759 310.783C510.51 311.056 510.29 311.267 510.1 311.416 509.909 311.565 509.705 311.69 509.488 311.79 509.271 311.89 509.056 311.963 508.844 312.009 508.631 312.056 508.401 312.079 508.151 312.079 507.229 312.079 506.523 311.773 506.035 311.16 505.547 310.547 505.302 309.662 505.302 308.505 505.302 307.782 505.439 307.141 505.713 306.582 505.986 306.023 506.369 305.592 506.862 305.289 507.356 304.987 507.924 304.835 508.569 304.835Z" fill="#DAE3F3" fill-rule="evenodd"/><text fill="#000000" fill-opacity="0" font-family="Arial,Arial_MSFontService,sans-serif" font-size="7.24365" x="505.302" y="311.173">c</text><path d="M488.727 297.148 525.727 297.148 525.727 298.148 488.727 298.148Z" fill="#DAE3F3" fill-rule="evenodd"/><g clip-path="url(#clip4)"><path d="M618.688 278.74C620.694 280.458 622.287 283.022 623.467 286.43 624.646 289.838 625.235 293.642 625.235 297.841 625.235 301.977 624.646 305.774 623.467 309.234 622.287 312.693 620.694 315.278 618.688 316.987L618.343 316.445C620.077 314.682 621.412 312.131 622.35 308.791 623.287 305.451 623.756 301.804 623.756 297.848 623.756 293.801 623.285 290.136 622.342 286.855 621.4 283.574 620.067 281.052 618.343 279.289ZM536.652 278.74 536.996 279.289C535.267 281.052 533.933 283.574 532.993 286.855 532.053 290.136 531.583 293.801 531.583 297.848 531.583 301.804 532.052 305.451 532.99 308.791 533.927 312.131 535.262 314.682 536.996 316.445L536.652 316.987C534.645 315.278 533.052 312.693 531.873 309.234 530.693 305.774 530.104 301.977 530.104 297.841 530.104 293.642 530.693 289.838 531.873 286.43 533.052 283.022 534.645 280.458 536.652 278.74Z" fill="#DAE3F3" fill-rule="evenodd"/></g><path d="M547.154 284.501C546.651 284.501 546.249 284.702 545.949 285.105 545.649 285.508 545.472 286.083 545.418 286.83L548.619 286.83C548.589 286.302 548.523 285.871 548.421 285.537 548.318 285.202 548.165 284.946 547.96 284.768 547.754 284.59 547.486 284.501 547.154 284.501ZM556.348 283.929C556.611 283.929 556.847 283.96 557.055 284.021 557.262 284.082 557.445 284.176 557.604 284.303 557.763 284.43 557.893 284.587 557.996 284.775 558.098 284.963 558.175 285.189 558.226 285.453 558.278 285.716 558.303 286.051 558.303 286.456L558.303 289.217C558.303 289.554 558.313 289.798 558.333 289.95 558.352 290.101 558.386 290.218 558.435 290.301 558.484 290.384 558.555 290.454 558.648 290.51 558.74 290.566 558.901 290.626 559.131 290.69L559.131 291.048 556.245 291.048 556.245 290.69C556.436 290.631 556.572 290.58 556.655 290.536 556.738 290.492 556.808 290.431 556.864 290.353 556.92 290.274 556.964 290.154 556.996 289.99 557.028 289.826 557.044 289.579 557.044 289.247L557.044 287.328C557.044 286.986 557.034 286.676 557.014 286.398 556.995 286.119 556.962 285.891 556.915 285.713 556.869 285.534 556.813 285.395 556.747 285.295 556.681 285.195 556.603 285.11 556.513 285.039 556.422 284.968 556.318 284.912 556.201 284.87 556.084 284.829 555.93 284.808 555.74 284.808 555.549 284.808 555.369 284.846 555.198 284.922 555.027 284.997 554.839 285.128 554.634 285.314 554.429 285.499 554.28 285.682 554.187 285.863 554.094 286.044 554.048 286.251 554.048 286.485L554.048 289.217C554.048 289.637 554.067 289.929 554.107 290.093 554.146 290.256 554.22 290.381 554.33 290.466 554.44 290.552 554.619 290.626 554.868 290.69L554.868 291.048 551.997 291.048 551.997 290.69C552.188 290.631 552.323 290.58 552.404 290.536 552.484 290.492 552.553 290.431 552.609 290.353 552.665 290.274 552.709 290.155 552.741 289.994 552.772 289.833 552.788 289.581 552.788 289.239L552.788 286.046C552.788 285.733 552.783 285.482 552.773 285.292 552.764 285.101 552.73 284.949 552.671 284.834 552.612 284.719 552.523 284.634 552.404 284.577 552.284 284.521 552.114 284.474 551.895 284.435L551.895 284.046 553.608 283.981 554.055 283.981 553.975 285.174 554.077 285.204C554.439 284.837 554.73 284.576 554.952 284.42 555.175 284.264 555.399 284.143 555.626 284.057 555.853 283.972 556.094 283.929 556.348 283.929ZM547.227 283.922C547.72 283.922 548.14 284 548.487 284.156 548.834 284.313 549.111 284.526 549.318 284.797 549.526 285.068 549.687 285.41 549.802 285.823 549.916 286.235 549.981 286.773 549.996 287.438L545.381 287.438 545.381 287.569C545.381 288.146 545.446 288.63 545.576 289.023 545.705 289.416 545.917 289.724 546.213 289.946 546.508 290.168 546.893 290.279 547.366 290.279 547.767 290.279 548.127 290.205 548.447 290.056 548.766 289.907 549.085 289.664 549.402 289.327L549.849 289.803C549.537 290.13 549.25 290.387 548.989 290.572 548.727 290.758 548.44 290.903 548.128 291.008 547.815 291.113 547.471 291.166 547.095 291.166 546.089 291.166 545.33 290.864 544.817 290.261 544.305 289.658 544.048 288.768 544.048 287.591 544.048 286.864 544.179 286.222 544.44 285.665 544.701 285.108 545.074 284.679 545.557 284.376 546.041 284.073 546.597 283.922 547.227 283.922ZM540.839 283.922C541.161 283.922 541.472 283.938 541.773 283.97 542.073 284.001 542.45 284.064 542.904 284.156L542.904 285.65 542.201 285.65C542.094 285.357 541.967 285.127 541.82 284.958 541.674 284.79 541.508 284.671 541.322 284.603 541.137 284.535 540.91 284.501 540.641 284.501 540.251 284.501 539.939 284.592 539.707 284.775 539.475 284.958 539.359 285.209 539.359 285.526 539.359 285.751 539.406 285.936 539.499 286.083 539.591 286.229 539.735 286.366 539.931 286.493 540.126 286.62 540.47 286.788 540.963 286.998 541.461 287.213 541.846 287.411 542.117 287.591 542.388 287.772 542.6 287.982 542.754 288.221 542.908 288.461 542.985 288.746 542.985 289.078 542.985 289.464 542.919 289.789 542.787 290.052 542.655 290.316 542.47 290.531 542.231 290.697 541.991 290.863 541.707 290.982 541.377 291.056 541.048 291.129 540.688 291.166 540.297 291.166 539.887 291.166 539.489 291.135 539.103 291.074 538.717 291.013 538.341 290.934 537.975 290.836L537.975 289.305 538.693 289.305C538.825 289.754 539.02 290.08 539.279 290.283 539.538 290.486 539.894 290.587 540.348 290.587 540.524 290.587 540.696 290.569 540.865 290.532 541.033 290.495 541.183 290.434 541.315 290.349 541.447 290.263 541.552 290.148 541.63 290.001 541.708 289.855 541.747 289.671 541.747 289.452 541.747 289.203 541.698 289 541.601 288.844 541.503 288.688 541.352 288.545 541.147 288.415 540.941 288.286 540.58 288.111 540.063 287.892 539.618 287.706 539.262 287.525 538.993 287.35 538.725 287.174 538.513 286.966 538.36 286.727 538.206 286.488 538.129 286.205 538.129 285.878 538.129 285.477 538.238 285.129 538.455 284.834 538.672 284.538 538.986 284.313 539.396 284.156 539.806 284 540.287 283.922 540.839 283.922Z" fill="#DAE3F3" fill-rule="evenodd"/><text fill="#000000" fill-opacity="0" font-family="Arial,Arial_MSFontService,sans-serif" font-size="7.24365" x="537.975" y="290.26">sen</text><path d="M612.249 279.832C613.675 280.208 614.77 281.019 615.534 282.267 616.298 283.514 616.681 285.02 616.681 286.782 616.681 288.55 616.3 290.055 615.538 291.298 614.776 292.54 613.68 293.35 612.249 293.726L612.074 293.162C613.202 292.786 614.04 292.043 614.589 290.935 615.139 289.827 615.413 288.418 615.413 286.709 615.413 285.059 615.14 283.688 614.593 282.596 614.046 281.505 613.199 280.772 612.052 280.396ZM564.703 279.832 564.901 280.396C563.758 280.772 562.912 281.505 562.363 282.596 561.813 283.688 561.539 285.059 561.539 286.709 561.539 288.418 561.813 289.827 562.363 290.935 562.912 292.043 563.751 292.786 564.879 293.162L564.703 293.726C563.272 293.35 562.176 292.54 561.414 291.298 560.653 290.055 560.272 288.55 560.272 286.782 560.272 285.02 560.654 283.514 561.418 282.267 562.182 281.019 563.277 280.208 564.703 279.832Z" fill="#DAE3F3" fill-rule="evenodd"/><path d="M567.289 286.31C567.342 289.156 567.965 290.58 569.156 290.58 570.348 290.58 570.953 289.156 570.973 286.31ZM569.134 281.358C567.943 281.358 567.328 282.76 567.289 285.563L570.965 285.563C570.897 282.76 570.287 281.358 569.134 281.358ZM569.164 280.78C570.233 280.78 571.026 281.192 571.544 282.018 572.061 282.843 572.32 284.117 572.32 285.841 572.32 287.618 572.047 288.95 571.5 289.836 570.953 290.722 570.135 291.166 569.046 291.166 567.972 291.166 567.186 290.747 566.688 289.909 566.19 289.072 565.941 287.794 565.941 286.075 565.941 284.352 566.214 283.038 566.761 282.135 567.308 281.232 568.109 280.78 569.164 280.78Z" fill="#DAE3F3" fill-rule="evenodd"/><text fill="#000000" fill-opacity="0" font-family="Arial,Arial_MSFontService,sans-serif" font-size="10.3857" x="565.941" y="289.867">θ</text><path d="M576.128 286.624C576.794 286.624 577.297 286.77 577.638 287.062 577.978 287.354 578.148 287.777 578.148 288.332 578.148 288.522 578.129 288.697 578.091 288.856 578.054 289.015 577.995 289.173 577.914 289.329 577.834 289.484 577.725 289.652 577.589 289.831 577.453 290.01 577.303 290.192 577.138 290.376 576.973 290.56 576.689 290.867 576.284 291.297 575.604 292.017 575.104 292.645 574.786 293.182L576.81 293.182C576.986 293.182 577.127 293.172 577.235 293.15 577.342 293.129 577.428 293.093 577.493 293.043 577.557 292.993 577.608 292.927 577.646 292.847 577.683 292.766 577.731 292.642 577.788 292.473L578.245 292.473 578.153 294.042 573.733 294.042 573.733 293.784C573.887 293.408 574.094 293.023 574.356 292.629 574.617 292.235 574.988 291.772 575.468 291.238 575.883 290.78 576.182 290.432 576.365 290.196 576.565 289.938 576.715 289.715 576.813 289.527 576.912 289.339 576.982 289.162 577.025 288.996 577.068 288.829 577.09 288.662 577.09 288.493 577.09 288.225 577.047 287.988 576.961 287.782 576.875 287.576 576.743 287.414 576.566 287.296 576.389 287.177 576.166 287.118 575.897 287.118 575.228 287.118 574.777 287.491 574.544 288.236L573.894 288.236 573.894 287.204C574.327 287 574.733 286.853 575.111 286.761 575.488 286.67 575.828 286.624 576.128 286.624Z" fill="#DAE3F3" fill-rule="evenodd"/><text fill="#000000" fill-opacity="0" font-family="Arial,Arial_MSFontService,sans-serif" font-size="7.41748" x="573.733" y="293.115">2</text><path d="M583.998 286.273 593.021 286.273 593.021 287.247 583.998 287.247Z" fill="#DAE3F3" fill-rule="evenodd"/><text fill="#000000" fill-opacity="0" font-family="Arial,Arial_MSFontService,sans-serif" font-size="0.974121" x="583.998" y="287.125">−</text><path d="M599.415 286.31C599.469 289.156 600.091 290.58 601.283 290.58 602.474 290.58 603.08 289.156 603.099 286.31ZM601.261 281.358C600.07 281.358 599.454 282.76 599.415 285.563L603.092 285.563C603.024 282.76 602.413 281.358 601.261 281.358ZM601.29 280.78C602.36 280.78 603.153 281.192 603.671 282.018 604.188 282.843 604.447 284.117 604.447 285.841 604.447 287.618 604.174 288.95 603.627 289.836 603.08 290.722 602.262 291.166 601.173 291.166 600.099 291.166 599.313 290.747 598.815 289.909 598.317 289.072 598.068 287.794 598.068 286.075 598.068 284.352 598.341 283.038 598.888 282.135 599.435 281.232 600.236 280.78 601.29 280.78Z" fill="#DAE3F3" fill-rule="evenodd"/><text fill="#000000" fill-opacity="0" font-family="Arial,Arial_MSFontService,sans-serif" font-size="10.3857" x="598.068" y="289.867">θ</text><path d="M608.234 286.624C608.638 286.624 608.993 286.687 609.297 286.812 609.601 286.938 609.834 287.118 609.995 287.352 610.156 287.587 610.237 287.867 610.237 288.193 610.237 288.497 610.176 288.765 610.054 288.996 609.933 289.227 609.762 289.428 609.541 289.6 609.321 289.772 609.036 289.94 608.685 290.105L608.685 290.153C608.903 290.192 609.114 290.26 609.316 290.354 609.518 290.449 609.698 290.572 609.856 290.722 610.013 290.873 610.139 291.053 610.234 291.262 610.329 291.472 610.377 291.711 610.377 291.979 610.377 292.395 610.286 292.763 610.105 293.086 609.925 293.408 609.648 293.662 609.276 293.848 608.903 294.035 608.45 294.128 607.917 294.128 607.609 294.128 607.277 294.093 606.92 294.023 606.564 293.953 606.237 293.861 605.94 293.746L605.94 292.608 606.585 292.608C606.71 292.98 606.876 293.25 607.081 293.419 607.287 293.587 607.568 293.671 607.922 293.671 608.388 293.671 608.739 293.544 608.977 293.29 609.216 293.036 609.335 292.66 609.335 292.162 609.335 291.639 609.177 291.24 608.862 290.964 608.547 290.688 608.085 290.551 607.476 290.551L606.993 290.551 606.993 290.078C607.476 290.049 607.884 289.956 608.215 289.799 608.546 289.641 608.792 289.439 608.953 289.192 609.114 288.945 609.195 288.667 609.195 288.359 609.195 287.962 609.089 287.656 608.878 287.441 608.667 287.226 608.359 287.118 607.954 287.118 607.618 287.118 607.344 287.21 607.133 287.392 606.921 287.575 606.766 287.854 606.665 288.23L606.021 288.23 606.021 287.21C606.436 287.013 606.825 286.866 607.186 286.769 607.548 286.673 607.897 286.624 608.234 286.624Z" fill="#DAE3F3" fill-rule="evenodd"/><text fill="#000000" fill-opacity="0" font-family="Arial,Arial_MSFontService,sans-serif" font-size="7.50342" x="605.94" y="293.19">3</text><path d="M547.154 305.414C546.651 305.414 546.249 305.615 545.949 306.018 545.649 306.421 545.472 306.996 545.418 307.743L548.619 307.743C548.589 307.216 548.523 306.785 548.421 306.45 548.318 306.116 548.165 305.859 547.96 305.681 547.754 305.503 547.486 305.414 547.154 305.414ZM556.348 304.843C556.611 304.843 556.847 304.873 557.055 304.934 557.262 304.995 557.445 305.089 557.604 305.216 557.763 305.343 557.893 305.501 557.996 305.689 558.098 305.877 558.175 306.102 558.226 306.366 558.278 306.63 558.303 306.964 558.303 307.369L558.303 310.131C558.303 310.468 558.313 310.712 558.333 310.863 558.352 311.014 558.386 311.132 558.435 311.215 558.484 311.298 558.555 311.367 558.648 311.423 558.74 311.48 558.901 311.539 559.131 311.603L559.131 311.962 556.245 311.962 556.245 311.603C556.436 311.544 556.572 311.493 556.655 311.449 556.738 311.405 556.808 311.344 556.864 311.266 556.92 311.188 556.964 311.067 556.996 310.903 557.028 310.74 557.044 310.492 557.044 310.16L557.044 308.241C557.044 307.899 557.034 307.589 557.014 307.311 556.995 307.033 556.962 306.804 556.915 306.626 556.869 306.448 556.813 306.309 556.747 306.209 556.681 306.108 556.603 306.023 556.513 305.952 556.422 305.881 556.318 305.825 556.201 305.784 556.084 305.742 555.93 305.721 555.74 305.721 555.549 305.721 555.369 305.759 555.198 305.835 555.027 305.911 554.839 306.041 554.634 306.227 554.429 306.412 554.28 306.596 554.187 306.776 554.094 306.957 554.048 307.164 554.048 307.399L554.048 310.131C554.048 310.551 554.067 310.842 554.107 311.006 554.146 311.169 554.22 311.294 554.33 311.379 554.44 311.465 554.619 311.539 554.868 311.603L554.868 311.962 551.997 311.962 551.997 311.603C552.188 311.544 552.323 311.493 552.404 311.449 552.484 311.405 552.553 311.344 552.609 311.266 552.665 311.188 552.709 311.068 552.741 310.907 552.772 310.746 552.788 310.494 552.788 310.153L552.788 306.959C552.788 306.647 552.783 306.395 552.773 306.205 552.764 306.014 552.73 305.862 552.671 305.747 552.612 305.632 552.523 305.547 552.404 305.491 552.284 305.435 552.114 305.387 551.895 305.348L551.895 304.96 553.608 304.894 554.055 304.894 553.975 306.088 554.077 306.117C554.439 305.751 554.73 305.49 554.952 305.333 555.175 305.177 555.399 305.056 555.626 304.971 555.853 304.885 556.094 304.843 556.348 304.843ZM547.227 304.835C547.72 304.835 548.14 304.913 548.487 305.07 548.834 305.226 549.111 305.44 549.318 305.711 549.526 305.982 549.687 306.323 549.802 306.736 549.916 307.148 549.981 307.687 549.996 308.351L545.381 308.351 545.381 308.483C545.381 309.059 545.446 309.544 545.576 309.937 545.705 310.33 545.917 310.637 546.213 310.859 546.508 311.082 546.893 311.193 547.366 311.193 547.767 311.193 548.127 311.118 548.447 310.969 548.766 310.82 549.085 310.577 549.402 310.241L549.849 310.717C549.537 311.044 549.25 311.3 548.989 311.486 548.727 311.671 548.44 311.816 548.128 311.921 547.815 312.026 547.471 312.079 547.095 312.079 546.089 312.079 545.33 311.777 544.817 311.174 544.305 310.571 544.048 309.681 544.048 308.505 544.048 307.777 544.179 307.135 544.44 306.578 544.701 306.022 545.074 305.592 545.557 305.289 546.041 304.987 546.597 304.835 547.227 304.835ZM540.839 304.835C541.161 304.835 541.472 304.851 541.773 304.883 542.073 304.915 542.45 304.977 542.904 305.07L542.904 306.564 542.201 306.564C542.094 306.271 541.967 306.04 541.82 305.872 541.674 305.703 541.508 305.585 541.322 305.516 541.137 305.448 540.91 305.414 540.641 305.414 540.251 305.414 539.939 305.505 539.707 305.689 539.475 305.872 539.359 306.122 539.359 306.439 539.359 306.664 539.406 306.849 539.499 306.996 539.591 307.142 539.735 307.279 539.931 307.406 540.126 307.533 540.47 307.701 540.963 307.911 541.461 308.126 541.846 308.324 542.117 308.505 542.388 308.685 542.6 308.895 542.754 309.135 542.908 309.374 542.985 309.659 542.985 309.992 542.985 310.377 542.919 310.702 542.787 310.966 542.655 311.229 542.47 311.444 542.231 311.61 541.991 311.776 541.707 311.896 541.377 311.969 541.048 312.042 540.688 312.079 540.297 312.079 539.887 312.079 539.489 312.048 539.103 311.987 538.717 311.926 538.341 311.847 537.975 311.749L537.975 310.219 538.693 310.219C538.825 310.668 539.02 310.994 539.279 311.196 539.538 311.399 539.894 311.5 540.348 311.5 540.524 311.5 540.696 311.482 540.865 311.445 541.033 311.409 541.183 311.348 541.315 311.262 541.447 311.177 541.552 311.061 541.63 310.914 541.708 310.768 541.747 310.585 541.747 310.365 541.747 310.116 541.698 309.913 541.601 309.757 541.503 309.601 541.352 309.458 541.147 309.329 540.941 309.199 540.58 309.025 540.063 308.805 539.618 308.619 539.262 308.439 538.993 308.263 538.725 308.087 538.513 307.88 538.36 307.64 538.206 307.401 538.129 307.118 538.129 306.791 538.129 306.39 538.238 306.043 538.455 305.747 538.672 305.452 538.986 305.226 539.396 305.07 539.806 304.913 540.287 304.835 540.839 304.835Z" fill="#DAE3F3" fill-rule="evenodd"/><text fill="#000000" fill-opacity="0" font-family="Arial,Arial_MSFontService,sans-serif" font-size="7.24365" x="537.975" y="311.173">sen</text><path d="M612.249 300.745C613.675 301.121 614.77 301.933 615.534 303.18 616.298 304.428 616.681 305.933 616.681 307.696 616.681 309.463 616.3 310.968 615.538 312.211 614.776 313.454 613.68 314.263 612.249 314.639L612.074 314.075C613.202 313.699 614.04 312.957 614.589 311.848 615.139 310.74 615.413 309.331 615.413 307.622 615.413 305.972 615.14 304.601 614.593 303.51 614.046 302.418 613.199 301.685 612.052 301.309ZM564.703 300.745 564.901 301.309C563.758 301.685 562.912 302.418 562.363 303.51 561.813 304.601 561.539 305.972 561.539 307.622 561.539 309.331 561.813 310.74 562.363 311.848 562.912 312.957 563.751 313.699 564.879 314.075L564.703 314.639C563.272 314.263 562.176 313.454 561.414 312.211 560.653 310.968 560.272 309.463 560.272 307.696 560.272 305.933 560.654 304.428 561.418 303.18 562.182 301.933 563.277 301.121 564.703 300.745Z" fill="#DAE3F3" fill-rule="evenodd"/><path d="M567.289 307.223C567.342 310.07 567.965 311.493 569.156 311.493 570.348 311.493 570.953 310.07 570.973 307.223ZM569.134 302.272C567.943 302.272 567.328 303.673 567.289 306.476L570.965 306.476C570.897 303.673 570.287 302.272 569.134 302.272ZM569.164 301.693C570.233 301.693 571.026 302.106 571.544 302.931 572.061 303.756 572.32 305.031 572.32 306.754 572.32 308.532 572.047 309.863 571.5 310.75 570.953 311.636 570.135 312.079 569.046 312.079 567.972 312.079 567.186 311.66 566.688 310.823 566.19 309.985 565.941 308.707 565.941 306.989 565.941 305.265 566.214 303.951 566.761 303.048 567.308 302.145 568.109 301.693 569.164 301.693Z" fill="#DAE3F3" fill-rule="evenodd"/><text fill="#000000" fill-opacity="0" font-family="Arial,Arial_MSFontService,sans-serif" font-size="10.3857" x="565.941" y="310.781">θ</text><path d="M576.44 308.8 574.34 312.135 574.34 312.21 576.44 312.21 576.44 310.873C576.44 310.536 576.445 310.16 576.456 309.742 576.467 309.325 576.479 309.011 576.494 308.8ZM576.596 307.586 577.364 307.586 577.364 312.21 577.477 312.21C577.684 312.21 577.833 312.195 577.922 312.165 578.012 312.134 578.086 312.081 578.145 312.004 578.204 311.927 578.259 311.8 578.309 311.625L578.717 311.625 578.653 312.731 577.364 312.731 577.364 313.612C577.364 313.852 577.372 314.028 577.388 314.139 577.404 314.25 577.431 314.337 577.468 314.402 577.506 314.466 577.562 314.52 577.635 314.563 577.708 314.606 577.827 314.649 577.992 314.692L577.992 314.955 575.811 314.955 575.811 314.692C576.033 314.635 576.182 314.571 576.257 314.501 576.332 314.431 576.382 314.332 576.405 314.203 576.428 314.074 576.44 313.877 576.44 313.612L576.44 312.731 573.454 312.731 573.454 312.329Z" fill="#DAE3F3" fill-rule="evenodd"/><text fill="#000000" fill-opacity="0" font-family="Arial,Arial_MSFontService,sans-serif" font-size="7.36914" x="573.454" y="314.034">4</text><path d="M583.998 307.186 593.021 307.186 593.021 308.16 583.998 308.16Z" fill="#DAE3F3" fill-rule="evenodd"/><text fill="#000000" fill-opacity="0" font-family="Arial,Arial_MSFontService,sans-serif" font-size="0.974121" x="583.998" y="308.039">−</text><path d="M599.415 307.223C599.469 310.07 600.091 311.493 601.283 311.493 602.474 311.493 603.08 310.07 603.099 307.223ZM601.261 302.272C600.07 302.272 599.454 303.673 599.415 306.476L603.092 306.476C603.024 303.673 602.413 302.272 601.261 302.272ZM601.29 301.693C602.36 301.693 603.153 302.106 603.671 302.931 604.188 303.756 604.447 305.031 604.447 306.754 604.447 308.532 604.174 309.863 603.627 310.75 603.08 311.636 602.262 312.079 601.173 312.079 600.099 312.079 599.313 311.66 598.815 310.823 598.317 309.985 598.068 308.707 598.068 306.989 598.068 305.265 598.341 303.951 598.888 303.048 599.435 302.145 600.236 301.693 601.29 301.693Z" fill="#DAE3F3" fill-rule="evenodd"/><text fill="#000000" fill-opacity="0" font-family="Arial,Arial_MSFontService,sans-serif" font-size="10.3857" x="598.068" y="310.781">θ</text><path d="M608.234 307.538C608.638 307.538 608.993 307.6 609.297 307.726 609.601 307.851 609.834 308.031 609.995 308.265 610.156 308.5 610.237 308.78 610.237 309.106 610.237 309.41 610.176 309.678 610.054 309.909 609.933 310.14 609.762 310.341 609.541 310.513 609.321 310.685 609.036 310.853 608.685 311.018L608.685 311.066C608.903 311.106 609.114 311.173 609.316 311.268 609.518 311.363 609.698 311.485 609.856 311.636 610.013 311.786 610.139 311.966 610.234 312.176 610.329 312.385 610.377 312.624 610.377 312.893 610.377 313.308 610.286 313.677 610.105 313.999 609.925 314.321 609.648 314.576 609.276 314.762 608.903 314.948 608.45 315.041 607.917 315.041 607.609 315.041 607.277 315.006 606.92 314.936 606.564 314.866 606.237 314.774 605.94 314.66L605.94 313.521 606.585 313.521C606.71 313.893 606.876 314.164 607.081 314.332 607.287 314.5 607.568 314.584 607.922 314.584 608.388 314.584 608.739 314.457 608.977 314.203 609.216 313.949 609.335 313.573 609.335 313.075 609.335 312.552 609.177 312.153 608.862 311.877 608.547 311.602 608.085 311.464 607.476 311.464L606.993 311.464 606.993 310.991C607.476 310.963 607.884 310.869 608.215 310.712 608.546 310.554 608.792 310.352 608.953 310.105 609.114 309.858 609.195 309.58 609.195 309.272 609.195 308.875 609.089 308.569 608.878 308.354 608.667 308.139 608.359 308.032 607.954 308.032 607.618 308.032 607.344 308.123 607.133 308.306 606.921 308.488 606.766 308.768 606.665 309.144L606.021 309.144 606.021 308.123C606.436 307.926 606.825 307.779 607.186 307.683 607.548 307.586 607.897 307.538 608.234 307.538Z" fill="#DAE3F3" fill-rule="evenodd"/><text fill="#000000" fill-opacity="0" font-family="Arial,Arial_MSFontService,sans-serif" font-size="7.50342" x="605.94" y="314.103">3</text><path d="M537.727 297.148 578.227 297.148 618.727 297.148 618.727 298.148 578.227 298.148 537.727 298.148Z" fill="#DAE3F3" fill-rule="evenodd"/><text fill="#DAE3F3" font-family="Cambria Math,Cambria Math_MSFontService,sans-serif" font-weight="400" font-size="15" transform="translate(500.673 389)">𝑉</text><text fill="#DAE3F3" font-family="Cambria Math,Cambria Math_MSFontService,sans-serif" font-weight="400" font-size="11" transform="translate(507.167 392)">𝐴</text><text fill="#DAE3F3" font-family="Cambria Math,Cambria Math_MSFontService,sans-serif" font-weight="400" font-size="15" transform="translate(516.747 389)"></text><text fill="#DAE3F3" font-family="Cambria Math,Cambria Math_MSFontService,sans-serif" font-weight="400" font-size="15" transform="translate(521.953 389)">=</text><text fill="#DAE3F3" font-family="Cambria Math,Cambria Math_MSFontService,sans-serif" font-weight="400" font-size="15" transform="translate(537.027 389)"></text><text fill="#DAE3F3" font-family="Cambria Math,Cambria Math_MSFontService,sans-serif" font-weight="400" font-size="15" transform="translate(540.193 389)">𝑎</text><text fill="#DAE3F3" font-family="Cambria Math,Cambria Math_MSFontService,sans-serif" font-weight="400" font-size="15" transform="translate(548.72 389)">(</text><text fill="#DAE3F3" font-family="Cambria Math,Cambria Math_MSFontService,sans-serif" font-weight="400" font-size="15" transform="translate(554.887 389)">𝜔</text><text fill="#DAE3F3" font-family="Cambria Math,Cambria Math_MSFontService,sans-serif" font-weight="400" font-size="11" transform="translate(565.553 392)">2</text><text fill="#DAE3F3" font-family="Cambria Math,Cambria Math_MSFontService,sans-serif" font-weight="400" font-size="15" transform="translate(572.16 389)">)</text><text fill="#DAE3F3" font-family="Cambria Math,Cambria Math_MSFontService,sans-serif" font-weight="400" font-size="15" transform="translate(494.27 455)">𝑉</text><text fill="#DAE3F3" font-family="Cambria Math,Cambria Math_MSFontService,sans-serif" font-weight="400" font-size="11" transform="translate(501.49 458)">𝐵</text><text fill="#DAE3F3" font-family="Cambria Math,Cambria Math_MSFontService,sans-serif" font-weight="400" font-size="11" transform="translate(508.777 458)">/</text><text fill="#DAE3F3" font-family="Cambria Math,Cambria Math_MSFontService,sans-serif" font-weight="400" font-size="11" transform="translate(513.943 458)">𝐴</text><text fill="#DAE3F3" font-family="Cambria Math,Cambria Math_MSFontService,sans-serif" font-weight="400" font-size="15" transform="translate(523.523 455)"></text><text fill="#DAE3F3" font-family="Cambria Math,Cambria Math_MSFontService,sans-serif" font-weight="400" font-size="15" transform="translate(528.73 455)">=</text><text fill="#DAE3F3" font-family="Cambria Math,Cambria Math_MSFontService,sans-serif" font-weight="400" font-size="15" transform="translate(543.803 455)"></text><text fill="#DAE3F3" font-family="Cambria Math,Cambria Math_MSFontService,sans-serif" font-weight="400" font-size="15" transform="translate(546.97 455)">𝑏</text><text fill="#DAE3F3" font-family="Cambria Math,Cambria Math_MSFontService,sans-serif" font-weight="400" font-size="15" transform="translate(555.123 455)">(</text><text fill="#DAE3F3" font-family="Cambria Math,Cambria Math_MSFontService,sans-serif" font-weight="400" font-size="15" transform="translate(561.29 455)">𝜔</text><text fill="#DAE3F3" font-family="Cambria Math,Cambria Math_MSFontService,sans-serif" font-weight="400" font-size="11" transform="translate(571.957 458)">3</text><text fill="#DAE3F3" font-family="Cambria Math,Cambria Math_MSFontService,sans-serif" font-weight="400" font-size="15" transform="translate(578.563 455)">)</text><text fill="#DAE3F3" font-family="Cambria Math,Cambria Math_MSFontService,sans-serif" font-weight="400" font-size="15" transform="translate(500.833 522)">𝑉</text><text fill="#DAE3F3" font-family="Cambria Math,Cambria Math_MSFontService,sans-serif" font-weight="400" font-size="11" transform="translate(508.053 525)">𝐵</text><text fill="#DAE3F3" font-family="Cambria Math,Cambria Math_MSFontService,sans-serif" font-weight="400" font-size="15" transform="translate(517.98 522)"></text><text fill="#DAE3F3" font-family="Cambria Math,Cambria Math_MSFontService,sans-serif" font-weight="400" font-size="15" transform="translate(523.187 522)">=</text><text fill="#DAE3F3" font-family="Cambria Math,Cambria Math_MSFontService,sans-serif" font-weight="400" font-size="15" transform="translate(538.26 522)"></text><text fill="#DAE3F3" font-family="Cambria Math,Cambria Math_MSFontService,sans-serif" font-weight="400" font-size="15" transform="translate(541.427 522)">𝑐</text><text fill="#DAE3F3" font-family="Cambria Math,Cambria Math_MSFontService,sans-serif" font-weight="400" font-size="15" transform="translate(548.56 522)">(</text><text fill="#DAE3F3" font-family="Cambria Math,Cambria Math_MSFontService,sans-serif" font-weight="400" font-size="15" transform="translate(554.727 522)">𝜔</text><text fill="#DAE3F3" font-family="Cambria Math,Cambria Math_MSFontService,sans-serif" font-weight="400" font-size="11" transform="translate(565.393 525)">4</text><text fill="#DAE3F3" font-family="Cambria Math,Cambria Math_MSFontService,sans-serif" font-weight="400" font-size="15" transform="translate(572 522)">)</text></g></svg>