<?xml version="1.0" standalone="no"?>
<!DOCTYPE svg PUBLIC "-//W3C//DTD SVG 20010904//EN"
 "http://www.w3.org/TR/2001/REC-SVG-20010904/DTD/svg10.dtd">
<svg version="1.0" xmlns="http://www.w3.org/2000/svg"
 width="50.000000pt" height="50.000000pt" viewBox="0 0 500.000000 500.000000"
 preserveAspectRatio="xMidYMid meet">

<g transform="translate(0.000000,500.000000) scale(0.100000,-0.100000)"
fill="#f5f6f9" stroke="none">
<path d="M619 3563 c-332 -576 -604 -1054 -604 -1063 0 -9 272 -487 604 -1063
l603 -1047 1213 0 1213 0 604 1047 c331 576 603 1054 603 1063 0 9 -272 487
-604 1063 l-604 1047 -1212 0 -1213 0 -603 -1047z m2861 871 c42 -13 67 -29
114 -78 54 -54 120 -165 540 -895 263 -459 485 -854 492 -879 19 -60 17 -116
-4 -177 -10 -27 -238 -432 -507 -899 -443 -768 -495 -852 -538 -887 -91 -73
-37 -70 -1163 -67 -1008 3 -1009 3 -1055 24 -26 12 -64 40 -85 61 -52 52
-1013 1718 -1032 1788 -14 54 -10 136 10 182 18 43 957 1672 990 1718 31 45
106 98 159 113 21 6 410 11 1030 11 884 1 1001 -1 1049 -15z"/>
<path d="M3550 4306 c0 -2 8 -10 18 -17 15 -13 16 -12 3 4 -13 16 -21 21 -21
13z"/>
<path d="M2254 4082 c-75 -27 -128 -73 -163 -144 -17 -34 -31 -70 -31 -80 0
-10 -84 -209 -186 -441 -103 -232 -191 -433 -196 -446 -5 -14 -27 -45 -49 -69
-68 -73 -83 -118 -84 -257 -2 -103 -9 -173 -41 -372 l-5 -33 -74 0 -75 0 0
-340 0 -339 -44 -20 c-107 -47 -101 -195 9 -231 l35 -12 0 -129 0 -129 545 0
545 0 0 133 c0 133 0 134 25 145 82 37 85 176 5 217 l-30 15 -2 343 -3 342
-82 3 -81 3 -33 137 c-18 75 -32 155 -32 177 8 243 -2 199 137 612 92 276 132
383 144 387 28 8 130 16 486 36 l338 20 33 -29 c18 -16 53 -36 78 -46 42 -16
46 -21 52 -59 3 -22 8 -53 11 -68 5 -23 1 -28 -20 -34 -25 -6 -26 -9 -26 -76
l0 -71 45 6 c25 4 45 4 45 1 0 -4 -21 -46 -46 -95 l-47 -88 74 -96 c41 -53 82
-106 91 -118 44 -56 47 71 4 161 l-29 61 54 90 c52 89 54 91 91 91 36 0 38 -2
83 -84 l45 -84 -26 -51 c-29 -55 -41 -132 -27 -169 8 -22 16 -15 96 91 48 63
87 122 87 131 0 9 -18 52 -40 96 l-40 80 36 0 35 0 -6 58 c-10 83 -13 92 -37
89 -18 -2 -31 21 -96 168 -41 94 -80 199 -88 234 -25 118 -103 189 -218 198
-50 4 -72 1 -112 -16 -49 -22 -51 -22 -359 -12 -494 17 -473 15 -509 50 -71
69 -199 97 -292 63z m199 -40 c133 -59 191 -224 121 -352 -105 -193 -372 -182
-463 20 -44 97 -15 221 68 292 79 67 179 82 274 40z m1137 -93 c56 -25 77 -44
100 -89 39 -76 35 -150 -12 -221 -29 -42 -117 -89 -170 -89 -112 0 -208 97
-208 210 0 150 154 251 290 189z m-482 -15 c116 -4 212 -8 212 -10 0 -1 -9
-18 -19 -36 -36 -61 -45 -118 -28 -184 8 -33 15 -60 14 -60 -1 -1 -123 -9
-272 -18 -148 -9 -313 -19 -365 -23 l-95 -6 18 24 c69 95 83 203 41 314 -7 17
2 17 137 12 79 -4 240 -10 357 -13z m-1027 -244 c28 -64 103 -133 170 -155 31
-11 72 -15 109 -13 36 2 60 -1 60 -7 0 -12 -221 -678 -227 -685 -3 -3 -9 4
-16 15 -25 46 -103 117 -156 142 -47 23 -69 27 -141 27 -56 -1 -98 -6 -122
-17 l-38 -16 16 37 c38 92 318 722 320 722 2 0 13 -23 25 -50z m1724 -151 c31
-72 54 -133 50 -137 -8 -8 -323 -27 -330 -20 -3 3 -8 35 -12 72 l-6 66 29 0
c62 1 172 77 189 131 4 11 10 19 14 19 5 0 34 -59 66 -131z m121 -214 c3 -20
5 -37 3 -39 -2 -2 -104 -6 -225 -9 l-222 -6 -4 34 c-3 30 -1 35 17 36 35 3
318 15 372 17 l52 2 7 -35z m-83 -92 c-7 -2 -19 -2 -25 0 -7 3 -2 5 12 5 14 0
19 -2 13 -5z m-1828 -280 c55 -29 120 -99 145 -156 44 -98 21 -235 -53 -322
-35 -42 -114 -83 -181 -96 -107 -19 -231 33 -297 126 -16 22 -36 70 -46 108
-17 64 -17 70 0 132 28 110 93 184 194 221 56 21 187 13 238 -13z m-372 -516
c21 -20 61 -49 90 -64 45 -24 64 -28 142 -28 77 0 98 4 148 27 32 15 78 49
105 77 l48 50 27 -117 c15 -64 27 -123 27 -129 0 -10 -76 -13 -348 -13 l-347
0 19 142 c19 134 20 140 35 117 8 -13 33 -41 54 -62z m755 -559 l-3 -323 -505
0 -505 0 -3 323 -2 322 510 0 510 0 -2 -322z m68 -391 c33 -39 32 -90 -2 -122
l-27 -25 -559 0 -559 0 -24 24 c-35 36 -42 72 -18 104 39 53 27 52 616 50
l549 -3 24 -28z m-66 -302 l0 -115 -510 0 -510 0 0 115 0 115 510 0 510 0 0
-115z"/>
<path d="M2263 3981 c-50 -23 -99 -86 -108 -140 -13 -80 39 -177 112 -207 84
-35 192 -5 239 65 50 76 44 168 -14 233 -63 69 -145 87 -229 49z m100 -328
c-7 -2 -19 -2 -25 0 -7 3 -2 5 12 5 14 0 19 -2 13 -5z"/>
<path d="M3428 3900 c-80 -44 -106 -151 -55 -229 64 -96 199 -95 271 2 29 40
29 134 0 173 -52 71 -144 94 -216 54z"/>
<path d="M1774 2895 c-91 -45 -134 -114 -134 -214 0 -141 101 -243 240 -243
98 0 175 49 216 137 97 208 -118 422 -322 320z"/>
<path d="M2930 2995 l0 -145 35 0 35 0 0 54 0 54 52 7 c61 9 98 40 98 84 0 69
-34 91 -145 91 l-75 0 0 -145z m140 80 c6 -8 9 -23 5 -35 -5 -15 -15 -20 -41
-20 -32 0 -34 2 -34 35 0 32 3 35 29 35 16 0 34 -7 41 -15z"/>
<path d="M2940 2405 l0 -145 90 0 c89 0 90 0 90 24 0 23 -4 25 -52 28 -51 3
-53 4 -56 35 -3 31 -3 32 45 35 44 3 48 5 48 28 0 23 -4 25 -47 28 -46 3 -48
5 -48 33 0 29 1 29 55 29 52 0 55 1 55 25 0 25 -1 25 -90 25 l-90 0 0 -145z"/>
<path d="M2860 1825 l0 -145 40 0 39 0 3 72 3 73 29 -73 c26 -65 32 -72 57
-72 25 0 30 7 55 71 15 38 31 72 36 75 4 3 8 -29 8 -70 l0 -76 35 0 35 0 0
145 0 145 -44 0 -44 0 -38 -95 c-22 -52 -41 -95 -44 -95 -3 0 -22 43 -44 95
l-38 95 -44 0 -44 0 0 -145z"/>
<path d="M2973 1385 c-81 -35 -68 -132 20 -156 50 -13 67 -25 67 -49 0 -28
-32 -34 -52 -11 -11 14 -28 21 -52 21 -45 0 -47 -20 -7 -61 25 -25 37 -29 81
-29 44 0 56 4 81 29 55 56 33 111 -59 142 -34 11 -48 22 -50 37 -4 29 23 39
47 18 10 -9 34 -16 54 -16 36 0 36 0 25 31 -18 52 -90 72 -155 44z"/>
<path d="M1953 613 c269 -2 705 -2 970 0 265 1 46 2 -488 2 -533 0 -750 -1
-482 -2z"/>
</g>
</svg>
