<svg width="648" height="349" xmlns="http://www.w3.org/2000/svg" xmlns:xlink="http://www.w3.org/1999/xlink" overflow="hidden"><defs><clipPath id="clip0"><rect x="354" y="175" width="648" height="349"/></clipPath></defs><g clip-path="url(#clip0)" transform="translate(-354 -175)"><path d="M1.52064-1.29909 180.999 208.788 177.958 211.386-1.52064 1.29909ZM-4.56193 3.89728C-6.71434 1.37779-6.41676-2.40952-3.89728-4.56193-1.37779-6.71434 2.40952-6.41676 4.56193-3.89728 6.71434-1.37779 6.41676 2.40952 3.89728 4.56193 1.37779 6.71434-2.40952 6.41676-4.56193 3.89728ZM184.04 206.19C186.193 208.709 185.895 212.496 183.376 214.649 180.856 216.801 177.069 216.504 174.916 213.984 172.764 211.465 173.062 207.677 175.581 205.525 178.101 203.373 181.888 203.67 184.04 206.19Z" fill="#00B050" transform="matrix(1 0 0 -1 412 470.087)"/><path d="M0.311374-1.97561 256.311 38.3722 255.689 42.3234-0.311374 1.97561ZM-0.934119 5.92684C-4.20742 5.41094-6.44274 2.33918-5.92684-0.934119-5.41094-4.20742-2.33918-6.44274 0.934119-5.92684 4.20742-5.41094 6.44274-2.33918 5.92684 0.934119 5.41094 4.20742 2.33918 6.44274-0.934119 5.92684ZM256.934 34.421C260.207 34.9369 262.443 38.0086 261.927 41.2819 261.411 44.5552 258.339 46.7906 255.066 46.2747 251.793 45.7588 249.557 42.687 250.073 39.4137 250.589 36.1404 253.661 33.9051 256.934 34.421Z" fill="#ED7D31" transform="matrix(1 0 0 -1 591 260.348)"/><path d="M938.333 482.237 845.116 220.671 848.884 219.329 942.101 480.894ZM945.869 479.551C946.982 482.673 945.353 486.105 942.232 487.217 939.11 488.33 935.678 486.701 934.566 483.58 933.453 480.458 935.082 477.026 938.203 475.914 941.325 474.801 944.757 476.43 945.869 479.551ZM841.348 222.014C840.236 218.893 841.864 215.461 844.986 214.348 848.107 213.236 851.539 214.864 852.652 217.986 853.764 221.107 852.136 224.539 849.014 225.652 845.893 226.764 842.461 225.136 841.348 222.014Z" fill="#81E6D9"/><path d="M412.5 481.5 941.196 481.5" stroke="#FFE699" stroke-linejoin="round" stroke-miterlimit="10" stroke-dasharray="4 3" fill="none" fill-rule="evenodd"/><path d="M384 503 384 478.5C384 464.969 395.193 454 409 454 422.807 454 434 464.969 434 478.5L434 503Z" fill="#BF9000" fill-rule="evenodd"/><path d="M913 503 913 478.5C913 464.969 923.969 454 937.5 454 951.031 454 962 464.969 962 478.5L962 503Z" fill="#BF9000" fill-rule="evenodd"/><path d="M401 480C401 475.582 404.358 472 408.5 472 412.642 472 416 475.582 416 480 416 484.418 412.642 488 408.5 488 404.358 488 401 484.418 401 480Z" fill="#00B050" fill-rule="evenodd"/><path d="M930 481.5C930 477.358 933.582 474 938 474 942.418 474 946 477.358 946 481.5 946 485.642 942.418 489 938 489 933.582 489 930 485.642 930 481.5Z" fill="#81E6D9" fill-rule="evenodd"/><text fill="#00B050" font-family="Cambria Math,Cambria Math_MSFontService,sans-serif" font-weight="400" font-size="27" transform="translate(476.183 327)">𝑟</text><text fill="#00B050" font-family="Cambria Math,Cambria Math_MSFontService,sans-serif" font-weight="400" font-size="20" transform="translate(485.923 333)">2</text><text fill="#ED7D31" font-family="Cambria Math,Cambria Math_MSFontService,sans-serif" font-weight="400" font-size="27" transform="translate(703.185 200)">𝑟</text><text fill="#ED7D31" font-family="Cambria Math,Cambria Math_MSFontService,sans-serif" font-weight="400" font-size="20" transform="translate(712.925 206)">3</text><text fill="#FFFFFF" font-family="Cambria Math,Cambria Math_MSFontService,sans-serif" font-weight="400" font-size="27" transform="translate(578.322 233)">𝐴</text><text fill="#FFFFFF" font-family="Cambria Math,Cambria Math_MSFontService,sans-serif" font-weight="400" font-size="27" transform="translate(856.393 203)">𝐵</text><text fill="#FFFFFF" font-family="Cambria Math,Cambria Math_MSFontService,sans-serif" font-weight="400" font-size="27" transform="translate(357.673 487)">𝑂</text><text fill="#FFFFFF" font-family="Cambria Math,Cambria Math_MSFontService,sans-serif" font-weight="400" font-size="27" transform="translate(973.153 487)">𝑂′</text><text fill="#FFE699" font-family="Cambria Math,Cambria Math_MSFontService,sans-serif" font-weight="400" font-size="27" transform="translate(667.594 516)">𝑟</text><text fill="#FFE699" font-family="Cambria Math,Cambria Math_MSFontService,sans-serif" font-weight="400" font-size="20" transform="translate(676.714 521)">1</text><text fill="#81E6D9" font-family="Cambria Math,Cambria Math_MSFontService,sans-serif" font-weight="400" font-size="27" transform="translate(910.234 320)">𝑟</text><text fill="#81E6D9" font-family="Cambria Math,Cambria Math_MSFontService,sans-serif" font-weight="400" font-size="20" transform="translate(918.834 325)">4</text><text fill="#FFFFFF" font-family="Cambria Math,Cambria Math_MSFontService,sans-serif" font-weight="400" font-size="27" transform="translate(466.866 448)">𝜃</text><text fill="#FFFFFF" font-family="Cambria Math,Cambria Math_MSFontService,sans-serif" font-weight="400" font-size="20" transform="translate(480.926 453)">2</text><text fill="#FFFFFF" font-family="Cambria Math,Cambria Math_MSFontService,sans-serif" font-weight="400" font-size="27" transform="translate(539.231 371)">2</text><text fill="#FFFFFF" font-family="Cambria Math,Cambria Math_MSFontService,sans-serif" font-weight="400" font-size="27" transform="translate(687.871 459)">1</text><text fill="#FFFFFF" font-family="Cambria Math,Cambria Math_MSFontService,sans-serif" font-weight="400" font-size="27" transform="translate(706.901 279)">3</text><text fill="#FFFFFF" font-family="Cambria Math,Cambria Math_MSFontService,sans-serif" font-weight="400" font-size="27" transform="translate(856.413 334)">4</text><path d="M18.6768 68.0407 12.9786 64.3574C12.9499 64.3389 12.9231 64.3174 12.8988 64.2934L8.1488 59.6059C8.1261 59.5835 8.1056 59.559 8.08757 59.5327L4.27507 53.9702C4.2574 53.9444 4.24219 53.917 4.22964 53.8884L1.54214 47.7634C1.52994 47.7356 1.52032 47.7068 1.51335 47.6773L-0.0491483 41.0523C-0.055911 41.0236-0.060125 40.9944-0.0617442 40.965L-0.436744 34.1525C-0.438398 34.1224-0.437335 34.0923-0.43357 34.0624L0.44143 27.1249C0.445527 27.0925 0.452806 27.0604 0.463158 27.0294L2.71316 20.2794C2.72306 20.2497 2.73575 20.2209 2.75103 20.1936L6.31353 13.8186C6.32987 13.7893 6.34914 13.7618 6.37099 13.7364L10.996 8.36138C11.02 8.33352 11.047 8.30838 11.0764 8.28643L16.7014 4.09893C16.7288 4.07855 16.7582 4.06103 16.7891 4.04664L22.2037 1.52832 22.6254 2.43505 17.2109 4.95336 17.2986 4.90107 11.6736 9.08857 11.754 9.01362 7.129 14.3886 7.18647 14.3064 3.62397 20.6814 3.66184 20.5956 1.41184 27.3456 1.43357 27.2501 0.55857 34.1876 0.561744 34.0975 0.936744 40.91 0.924148 40.8227 2.48665 47.4477 2.45786 47.3616 5.14536 53.4866 5.09993 53.4048 8.91243 58.9673 8.8512 58.8941 13.6012 63.5816 13.5214 63.5176 19.2197 67.2009ZM13.239 0.626182 23.3143 1.56321 17.5393 9.87218C17.3817 10.0989 17.0702 10.155 16.8434 9.9974 16.6167 9.8398 16.5606 9.52822 16.7182 9.30146L22.004 1.69633 22.3683 2.47954 13.1464 1.62188C12.8715 1.59631 12.6693 1.35269 12.6949 1.07773 12.7205 0.802776 12.9641 0.60061 13.239 0.626182Z" fill="#4472C4" transform="matrix(-1 0 0 1 506.5 407.5)"/></g></svg>