<svg width="361" height="312" xmlns="http://www.w3.org/2000/svg" xmlns:xlink="http://www.w3.org/1999/xlink" overflow="hidden"><defs><clipPath id="clip0"><rect x="495" y="171" width="361" height="312"/></clipPath></defs><g clip-path="url(#clip0)" transform="translate(-495 -171)"><path d="M497.179 348.295C485.655 264.584 551.347 186.393 643.906 173.651 736.465 160.909 820.841 218.441 832.365 302.152 843.889 385.863 778.197 464.053 685.638 476.795 593.079 489.537 508.703 432.006 497.179 348.295Z" fill="#FFFFFF" fill-rule="evenodd"/><path d="M554.364 351.456C542.977 268.741 600.8 192.456 683.515 181.069 766.229 169.682 842.514 227.505 853.901 310.22 865.288 392.935 807.465 469.219 724.75 480.606 642.035 491.993 565.751 434.17 554.364 351.456Z" fill="#313134" fill-rule="evenodd"/><path d="M627.775 203.362C629.154 198.358 634.329 195.42 639.333 196.799L675.576 206.789C680.58 208.169 683.518 213.343 682.139 218.348L619.371 446.06C617.991 451.065 612.817 454.003 607.812 452.624L571.57 442.634C566.566 441.254 563.628 436.079 565.007 431.075Z" stroke="#313134" stroke-width="1.33333" stroke-miterlimit="8" fill="#81E6D9" fill-rule="evenodd"/><path d="M637.269 205.506C635.903 200.498 638.854 195.331 643.862 193.964L680.129 184.066C685.137 182.699 690.304 185.651 691.671 190.658L753.863 418.529C755.23 423.537 752.278 428.704 747.271 430.071L711.003 439.969C705.996 441.336 700.828 438.384 699.462 433.377Z" fill="#81E6D9" fill-rule="evenodd"/><path d="M627.231 336.496 675.002 323.458 661.964 275.687 716.026 260.932 729.064 308.703 776.835 295.665 787.687 335.425 739.915 348.463 752.953 396.235 698.892 410.989 685.854 363.218 638.082 376.256Z" stroke="#2C3839" stroke-width="2" stroke-miterlimit="8" fill="#FFFFFF" fill-rule="evenodd"/></g></svg>